<?xml version="1.0" standalone="no"?>
<!DOCTYPE svg PUBLIC "-//W3C//DTD SVG 20010904//EN"
 "http://www.w3.org/TR/2001/REC-SVG-20010904/DTD/svg10.dtd">
<svg version="1.0" xmlns="http://www.w3.org/2000/svg"
 width="858.000000pt" height="858.000000pt" viewBox="0 0 858.000000 858.000000"
 preserveAspectRatio="xMidYMid meet">
<metadata>
Created by potrace 1.14, written by Peter Selinger 2001-2017
</metadata>
<g transform="translate(0.000000,858.000000) scale(0.100000,-0.100000)"
fill="#000000" stroke="none">
<path d="M2453 7555 c-16 -11 -22 -12 -26 -2 -3 9 -9 9 -25 0 -13 -8 -23 -9
-27 -3 -4 7 -14 6 -27 -1 -15 -8 -19 -8 -14 0 10 15 -7 14 -23 -1 -11 -10 -13
-10 -7 0 5 7 1 12 -9 12 -10 0 -14 -5 -9 -12 6 -10 4 -10 -7 0 -7 6 -17 12
-22 12 -4 0 -5 -6 -1 -12 6 -10 4 -10 -7 0 -7 6 -17 12 -22 12 -4 0 -5 -6 -1
-12 6 -10 4 -10 -7 0 -15 14 -33 17 -25 4 3 -5 -1 -9 -9 -9 -8 0 -12 4 -9 9 3
4 1 8 -5 8 -5 0 -13 -4 -16 -10 -3 -5 -12 -10 -18 -10 -7 0 -6 4 3 10 12 8 10
10 -8 10 -13 0 -21 -4 -18 -8 3 -5 -1 -9 -9 -9 -8 0 -12 4 -9 9 3 4 1 8 -5 8
-5 0 -12 -6 -14 -12 -4 -10 -6 -10 -6 0 -1 6 -8 12 -17 12 -8 0 -13 -4 -10 -8
3 -5 -1 -9 -9 -9 -8 0 -12 4 -9 9 8 13 -10 10 -25 -4 -11 -10 -13 -10 -7 0 5
8 0 12 -16 12 -19 0 -20 -2 -8 -10 12 -8 10 -9 -7 -7 -12 2 -26 6 -29 10 -11
10 -76 8 -70 -2 7 -10 -20 -9 -30 2 -12 12 -26 8 -18 -5 6 -10 4 -10 -7 0 -14
13 -33 17 -25 4 2 -4 -5 -9 -17 -9 -18 -2 -19 0 -7 8 12 9 11 9 -5 4 -36 -12
-56 -14 -50 -4 7 10 -8 12 -19 2 -10 -10 -46 -11 -52 -1 -3 4 -10 8 -15 8 -6
0 -7 -5 -4 -10 8 -13 -18 -8 -27 5 -5 6 -15 5 -29 -3 -11 -8 -18 -9 -14 -3 7
12 -37 16 -49 4 -9 -10 -37 -13 -31 -4 2 4 -2 8 -10 8 -8 0 -12 -3 -10 -7 2
-3 -6 -7 -18 -7 -17 -2 -19 0 -7 7 13 8 13 10 -2 10 -9 0 -20 -4 -23 -10 -3
-5 -12 -10 -18 -10 -7 0 -6 4 3 10 12 8 10 10 -8 10 -13 0 -21 -4 -18 -8 3 -5
-1 -9 -9 -9 -8 0 -12 4 -9 9 3 4 -2 8 -11 8 -9 0 -14 -4 -11 -8 3 -5 -1 -9 -9
-9 -8 0 -15 4 -15 9 0 4 -9 8 -21 8 -11 0 -18 -3 -16 -7 3 -5 -6 -9 -20 -10
-19 -1 -22 1 -12 8 11 6 8 9 -9 9 -13 0 -21 -4 -18 -8 3 -5 -1 -9 -9 -9 -8 0
-12 4 -9 9 3 4 -2 8 -11 8 -9 0 -14 -4 -11 -8 3 -5 -1 -9 -9 -9 -8 0 -12 4 -9
9 3 4 -2 8 -11 8 -9 0 -14 -4 -11 -8 3 -5 -1 -9 -9 -9 -8 0 -12 4 -9 9 3 4 -2
8 -11 8 -9 0 -14 -4 -11 -8 3 -5 -1 -9 -9 -9 -8 0 -15 4 -15 9 0 4 -23 8 -51
8 -35 0 -48 -3 -43 -12 5 -7 3 -8 -7 -2 -24 15 -38 13 -32 -4 4 -10 2 -13 -6
-8 -14 9 -11 -16 4 -26 6 -5 5 -8 -2 -8 -7 0 -13 -5 -13 -11 0 -5 4 -8 8 -5 5
3 9 -1 9 -9 0 -8 -4 -12 -9 -9 -4 3 -8 -2 -8 -11 0 -9 5 -13 11 -9 8 5 8 1 0
-13 -6 -11 -7 -23 -4 -27 11 -10 12 -37 2 -30 -5 3 -6 10 -3 16 4 6 2 8 -4 5
-14 -9 -3 -49 12 -40 6 3 6 0 -2 -8 -6 -7 -12 -20 -12 -28 0 -14 1 -14 10 -1
6 9 10 10 10 3 0 -6 -5 -15 -10 -18 -7 -4 -6 -13 1 -27 8 -15 8 -19 0 -14 -6
4 -11 4 -11 1 0 -4 5 -16 11 -27 8 -15 8 -19 0 -14 -7 5 -11 -2 -11 -16 0 -17
3 -20 9 -9 7 10 9 7 8 -12 -1 -14 -5 -23 -9 -20 -10 5 -10 -11 -1 -20 3 -4 8
-19 9 -34 2 -21 1 -24 -6 -13 -9 13 -10 13 -10 -1 0 -8 6 -21 13 -28 7 -9 7
-11 1 -8 -7 4 -15 0 -18 -8 -3 -9 1 -18 9 -22 13 -5 13 -7 -2 -18 -17 -13 -17
-14 -1 -20 16 -6 16 -9 2 -22 -8 -9 -12 -18 -9 -21 3 -4 10 0 15 8 6 8 10 11
10 7 0 -4 -7 -19 -16 -32 -10 -15 -12 -25 -5 -25 6 0 11 5 11 12 0 6 3 8 6 5
4 -4 2 -13 -4 -20 -7 -8 -9 -17 -5 -21 10 -10 11 -46 1 -40 -4 3 -8 -5 -8 -18
0 -17 3 -19 9 -9 6 9 8 5 8 -14 1 -19 -2 -23 -8 -14 -6 10 -9 8 -9 -9 0 -16 4
-21 13 -15 6 4 4 -5 -6 -20 -15 -24 -16 -28 -3 -33 14 -5 14 -8 0 -21 -8 -9
-12 -18 -9 -21 3 -4 10 0 15 7 5 10 8 6 7 -12 -1 -14 -5 -23 -9 -20 -5 2 -8
-3 -8 -12 0 -9 4 -14 8 -11 5 3 9 -1 9 -9 0 -8 -4 -12 -8 -10 -4 3 -7 -5 -6
-18 0 -12 -1 -26 -2 -32 -2 -5 -3 -29 -2 -53 1 -32 4 -41 13 -36 7 4 4 -3 -7
-16 -16 -19 -17 -22 -3 -17 16 6 20 -15 5 -29 -10 -10 -9 -26 1 -20 5 3 9 -1
9 -9 0 -8 -4 -12 -8 -9 -4 2 -10 0 -14 -6 -3 -5 -1 -10 6 -10 7 0 9 -3 6 -7
-4 -3 -1 -13 6 -21 10 -13 9 -14 -2 -7 -11 6 -13 4 -8 -8 3 -10 2 -17 -3 -17
-6 0 -10 -5 -10 -11 0 -6 6 -9 13 -6 8 3 14 -1 14 -9 0 -7 -4 -11 -9 -8 -4 3
-8 1 -8 -5 0 -5 -3 -18 -6 -28 -5 -16 -4 -16 12 2 l17 20 -8 -20 c-5 -11 -9
-31 -9 -45 -1 -14 -5 -31 -10 -39 -7 -11 -5 -13 6 -8 11 4 15 1 13 -11 -2 -9
-4 -17 -5 -17 -1 0 -3 -10 -6 -23 -3 -16 0 -21 8 -17 7 4 5 0 -4 -8 -21 -17
-24 -31 -5 -24 8 3 14 -1 14 -9 0 -7 -4 -11 -9 -8 -4 3 -8 1 -8 -5 0 -5 -3
-16 -6 -25 -3 -9 -1 -16 5 -16 6 0 11 8 11 17 0 9 3 13 7 10 3 -4 0 -18 -7
-32 -11 -20 -11 -27 1 -42 9 -11 10 -14 2 -9 -9 5 -13 -1 -13 -19 0 -18 4 -24
13 -19 9 6 9 5 0 -7 -10 -12 -10 -18 0 -29 7 -8 8 -11 1 -7 -18 10 -23 -29 -7
-53 8 -11 11 -20 6 -19 -20 3 -27 -2 -14 -10 8 -5 16 -17 17 -25 1 -9 -1 -14
-5 -11 -5 2 -8 -16 -8 -40 0 -30 4 -42 11 -38 6 4 4 -2 -5 -13 -15 -18 -15
-59 0 -50 4 3 8 -6 9 -19 1 -13 -3 -27 -8 -30 -6 -3 -10 -11 -10 -16 0 -6 4
-8 8 -5 5 3 9 -1 9 -9 0 -8 -4 -12 -8 -9 -4 2 -10 0 -14 -6 -3 -5 -1 -10 6
-10 7 0 9 -3 6 -7 -4 -3 -1 -13 6 -21 7 -10 8 -13 1 -9 -8 4 -13 -5 -17 -26
-5 -38 1 -59 15 -51 6 4 2 -5 -7 -20 -17 -25 -16 -26 1 -27 12 0 14 -3 6 -6
-10 -4 -10 -8 0 -21 7 -9 8 -13 2 -9 -19 11 -23 -30 -6 -54 8 -12 10 -19 4
-15 -6 3 -13 2 -16 -3 -3 -5 2 -12 11 -15 12 -5 14 -9 5 -18 -15 -15 -16 -62
-1 -52 6 3 3 -5 -6 -20 -17 -25 -16 -26 1 -27 11 0 14 -3 6 -6 -6 -2 -9 -9 -6
-14 3 -6 0 -17 -8 -26 -11 -14 -11 -16 3 -11 9 4 16 1 16 -8 0 -7 -4 -11 -9
-8 -13 8 -9 -20 5 -35 10 -11 9 -13 -1 -7 -7 5 -12 1 -12 -9 0 -10 5 -14 13
-9 9 6 9 4 -1 -7 -15 -17 -16 -33 0 -23 6 4 4 -3 -4 -15 -9 -12 -13 -31 -11
-42 5 -16 8 -18 15 -7 10 15 4 -25 -8 -56 -5 -12 -4 -17 3 -13 5 3 10 0 10 -8
0 -8 -4 -12 -8 -9 -15 9 -16 -22 -1 -39 12 -13 13 -20 4 -29 -17 -17 -16 -61
1 -52 9 6 9 4 -1 -7 -14 -15 -17 -33 -4 -25 5 3 9 -1 9 -9 0 -8 -4 -12 -8 -10
-4 3 -10 -2 -13 -10 -3 -9 1 -18 9 -21 13 -5 12 -8 -1 -21 -8 -9 -12 -18 -9
-21 3 -4 10 0 15 8 6 9 10 10 10 3 0 -6 -4 -15 -10 -18 -5 -3 -10 -14 -10 -23
0 -15 2 -15 10 -2 15 23 12 2 -5 -30 -11 -21 -12 -31 -3 -36 6 -4 8 -3 4 4 -3
6 -3 13 1 15 5 3 8 -10 9 -29 0 -22 -2 -30 -7 -22 -7 10 -9 9 -9 -3 0 -8 6
-21 12 -28 10 -11 10 -13 1 -7 -16 9 -16 1 -2 -26 6 -12 7 -18 1 -14 -5 3 -12
-1 -16 -9 -3 -8 3 -19 12 -24 10 -6 12 -11 5 -11 -7 0 -13 -8 -13 -17 0 -15 2
-16 10 -3 15 23 11 -1 -4 -29 -15 -27 -10 -64 8 -54 6 3 6 0 -2 -8 -6 -7 -12
-20 -12 -29 0 -13 1 -13 10 0 6 9 10 10 10 3 0 -6 -4 -15 -10 -18 -5 -3 -10
-14 -10 -23 0 -15 2 -15 10 -2 6 9 10 10 10 3 0 -6 -5 -15 -10 -18 -6 -4 -7
-12 -3 -18 11 -18 12 -38 2 -31 -5 3 -6 10 -3 16 4 6 2 8 -4 5 -14 -9 -3 -49
12 -40 6 3 6 0 -2 -8 -13 -14 -17 -33 -4 -25 4 2 9 -4 9 -15 1 -10 -3 -19 -8
-19 -6 0 -7 5 -3 12 5 7 3 8 -5 3 -9 -5 -9 -11 -3 -17 6 -6 8 -17 5 -26 -5
-11 -3 -13 8 -7 12 7 12 6 1 -7 -10 -13 -10 -17 0 -21 10 -4 10 -6 1 -6 -7 -1
-13 -6 -13 -12 0 -5 3 -8 8 -6 4 3 7 -5 7 -18 0 -19 -3 -21 -14 -12 -12 9 -13
9 -7 -1 4 -7 3 -19 -3 -26 -8 -9 -7 -13 4 -13 8 0 11 5 8 11 -3 6 -2 7 3 3 10
-10 13 -127 3 -121 -4 2 -9 -3 -13 -11 -3 -8 3 -19 12 -24 10 -6 12 -11 5 -11
-7 0 -13 -5 -13 -11 0 -5 3 -8 8 -6 4 3 7 -8 7 -24 1 -20 -3 -28 -12 -25 -7 3
-10 -1 -6 -9 3 -8 8 -13 12 -11 4 3 7 -7 8 -22 2 -24 1 -24 -7 -7 -8 19 -9 19
-9 -2 -1 -12 3 -25 9 -28 6 -3 10 -12 10 -18 0 -7 -4 -6 -10 3 -7 11 -10 7
-10 -18 0 -18 4 -31 8 -28 4 2 8 -4 8 -14 0 -10 -4 -16 -8 -14 -4 3 -8 -5 -8
-18 0 -18 2 -20 10 -8 15 24 12 2 -5 -31 -14 -26 -14 -30 0 -35 12 -5 13 -10
4 -20 -16 -19 -18 -75 -2 -81 10 -4 9 -8 -3 -20 -8 -9 -12 -18 -9 -21 3 -4 10
0 14 7 5 8 8 0 7 -22 0 -19 -4 -33 -8 -30 -11 6 -10 -5 3 -29 8 -15 8 -19 0
-14 -7 5 -11 -2 -11 -16 0 -19 2 -20 11 -8 9 13 10 12 5 -2 -3 -10 -9 -25 -13
-35 -4 -10 -2 -14 4 -10 5 3 10 0 10 -8 0 -8 -4 -12 -9 -9 -4 3 -8 -2 -8 -11
0 -10 5 -14 12 -9 11 6 11 4 1 -7 -15 -15 -17 -33 -4 -25 13 8 7 -49 -7 -67
-9 -10 -10 -17 -2 -22 5 -3 10 -1 10 6 0 7 3 9 6 6 4 -4 2 -13 -4 -20 -7 -8
-9 -17 -5 -21 10 -10 11 -66 1 -72 -4 -3 -8 -10 -8 -15 0 -6 3 -8 8 -5 4 2 7
-13 7 -34 0 -21 -3 -36 -7 -34 -10 6 -11 -10 -1 -20 11 -11 11 -66 0 -59 -7 4
-8 -1 -3 -13 13 -32 15 -55 5 -49 -5 4 -9 -1 -9 -10 0 -9 4 -14 8 -11 4 2 8
-7 9 -22 2 -24 1 -24 -7 -7 -8 18 -9 17 -9 -8 -1 -16 3 -26 7 -23 5 3 9 -1 9
-9 0 -8 -3 -12 -7 -10 -3 2 -6 -5 -7 -15 -1 -11 2 -22 8 -25 5 -3 6 2 3 12 -5
16 -4 16 10 -1 16 -20 21 -12 17 23 -2 7 2 10 8 6 6 -3 11 -1 11 5 0 6 5 8 13
4 8 -6 8 -3 -1 9 -12 14 -11 16 8 12 17 -3 19 -1 11 9 -8 10 -3 19 21 40 17
14 28 26 24 26 -5 0 0 8 11 18 10 9 14 15 8 12 -6 -3 2 6 17 20 16 14 28 31
28 38 0 7 5 10 12 6 6 -4 8 -3 4 4 -3 6 3 20 15 31 12 11 18 24 14 32 -5 8 -4
10 3 5 8 -5 12 0 12 12 0 12 6 19 17 18 10 0 19 9 23 24 4 15 13 24 24 24 13
-2 14 1 5 12 -9 11 -8 14 4 14 10 0 14 7 11 23 -2 12 -2 16 2 10 4 -10 9 -10
20 1 16 17 19 30 4 21 -16 -10 -11 1 7 16 15 12 16 12 8 -1 -8 -13 -7 -13 8
-1 11 8 15 22 12 35 -3 12 -2 15 1 8 4 -9 11 -7 25 9 10 12 17 25 14 29 -2 4
9 22 26 41 17 19 27 27 23 19 -7 -13 -5 -13 9 -1 18 15 23 26 7 16 -5 -3 -10
-1 -10 4 0 6 4 11 9 11 5 0 11 9 14 21 3 13 12 19 24 17 14 -2 17 2 15 20 -2
14 1 21 10 20 8 -2 12 6 11 22 -1 14 0 20 3 13 4 -10 8 -10 19 0 7 7 11 15 8
20 -2 4 4 7 14 8 11 0 13 3 5 6 -9 4 -7 10 7 22 12 10 17 22 13 26 -4 5 1 5
11 2 13 -5 17 -1 17 18 0 14 5 25 11 25 5 0 7 5 4 10 -3 6 1 10 9 10 9 0 15 5
13 12 -1 6 9 17 23 25 19 10 21 13 7 13 -10 0 -15 5 -12 11 4 6 9 8 12 5 10
-10 45 32 38 45 -6 8 -4 10 5 4 10 -6 12 -4 7 8 -3 10 -2 17 3 17 6 0 10 -6
10 -12 0 -9 3 -8 10 2 6 9 5 17 -3 22 -8 5 -6 8 6 8 10 0 17 8 17 20 0 18 10
24 32 21 4 0 5 8 3 19 -2 11 1 22 6 25 5 4 6 11 3 17 -4 7 -2 8 4 4 7 -4 22 0
34 8 13 9 17 16 9 16 -11 0 -11 3 -1 15 7 8 17 12 24 8 6 -4 4 2 -4 12 -9 11
-10 16 -2 11 7 -4 12 -2 12 4 0 6 5 8 13 4 8 -6 8 -3 -1 9 -12 14 -11 16 7 12
12 -2 19 0 16 6 -4 5 0 9 7 10 7 0 4 4 -7 9 -20 8 -19 9 1 9 13 1 27 12 35 29
13 27 18 31 37 33 4 0 -2 4 -12 8 -18 7 -16 9 12 22 18 8 32 20 32 27 0 7 4
11 8 8 5 -3 9 1 9 9 0 8 -5 15 -11 15 -6 0 2 9 18 19 17 11 34 17 39 14 5 -3
4 3 -1 14 -6 11 -7 25 -2 32 6 11 9 10 11 -3 3 -14 6 -14 17 5 8 11 9 18 3 15
-7 -5 -8 -1 -5 9 4 9 13 14 20 11 8 -3 13 -2 13 2 -3 21 3 32 19 32 14 0 15 2
2 10 -11 7 -11 10 -2 10 7 0 10 5 7 10 -4 6 -3 10 2 9 4 -1 15 -1 23 0 13 1
13 2 0 11 -13 8 -12 10 3 10 10 0 16 4 13 8 -3 5 4 15 15 22 10 8 19 20 19 28
0 17 25 42 42 42 10 0 9 3 -2 10 -11 7 -11 10 -2 10 7 0 11 4 8 9 -3 5 2 8 11
7 10 0 18 6 19 14 3 44 6 54 11 42 4 -10 8 -10 18 -2 8 6 11 19 8 27 -5 13 -2
15 11 10 9 -4 15 -3 11 2 -3 5 2 16 10 24 8 9 15 23 15 31 0 15 12 21 33 17 5
-1 5 4 1 10 -5 9 -2 10 12 6 18 -7 18 -7 0 8 -18 13 -15 20 7 16 7 -1 11 15 8
32 0 4 4 6 11 5 6 -2 17 8 24 20 8 17 13 20 17 10 3 -7 6 -3 6 10 1 16 5 21
14 16 7 -5 6 0 -3 11 -9 11 -10 16 -2 11 7 -4 12 -2 12 4 0 6 4 9 9 5 11 -6 7
28 -5 47 -4 7 -3 8 4 4 7 -4 12 -1 12 9 0 10 -5 14 -12 9 -10 -6 -10 -4 0 7
14 16 16 33 2 24 -6 -3 -10 1 -10 9 0 8 5 18 10 21 6 3 10 11 10 16 0 6 -4 8
-8 5 -5 -3 -9 1 -9 9 0 8 4 12 9 9 10 -6 11 10 1 20 -12 12 -12 37 0 29 7 -4
5 2 -3 12 -9 11 -10 16 -2 11 13 -8 17 6 5 18 -11 10 -12 37 -2 30 5 -3 9 2 9
11 0 10 -5 14 -12 9 -10 -6 -10 -4 0 7 14 16 16 33 2 24 -5 -3 -10 1 -10 10 0
9 5 13 10 10 11 -7 14 8 3 19 -10 10 -13 37 -3 31 5 -3 8 15 7 39 -1 25 -4 43
-7 41 -3 -2 -6 7 -6 20 0 13 4 21 8 19 4 -3 8 2 8 11 0 9 -4 14 -8 11 -5 -3
-9 1 -9 9 0 8 4 12 9 9 4 -3 8 0 8 5 0 6 -4 11 -10 11 -5 0 -10 5 -10 11 0 5
5 7 10 4 11 -7 14 8 3 19 -11 10 -12 37 -2 30 13 -8 11 10 -3 25 -7 8 -8 11
-3 8 6 -3 11 7 11 24 1 16 -1 27 -5 25 -4 -3 -7 6 -7 19 0 13 4 21 8 19 4 -3
8 2 8 11 0 10 -5 14 -12 9 -10 -6 -10 -4 0 7 14 16 16 33 2 24 -5 -3 -10 1
-10 9 0 8 5 18 10 21 15 9 12 27 -2 19 -10 -6 -10 -4 0 7 15 16 16 33 1 23 -8
-5 -8 -1 0 13 7 14 7 24 -2 33 -9 10 -9 11 1 6 7 -5 12 -1 12 9 0 9 -4 14 -8
11 -4 -2 -9 5 -9 17 -2 15 0 18 6 9 5 -8 8 2 7 26 0 22 -4 38 -8 35 -5 -2 -8
1 -8 6 0 6 5 11 10 11 6 0 10 5 10 11 0 5 -6 7 -12 3 -8 -5 -7 0 2 11 9 11 10
16 3 11 -8 -4 -13 -1 -13 9 0 9 5 13 10 10 6 -3 10 1 10 10 0 9 -4 14 -9 11
-5 -4 -8 2 -6 11 2 10 4 18 6 18 1 0 3 10 4 22 1 12 -1 21 -4 18 -4 -2 -7 5
-7 15 0 10 4 16 8 14 4 -3 8 2 8 11 0 9 -3 14 -8 11 -4 -2 -8 9 -9 26 0 21 2
26 8 17 7 -11 9 -11 9 2 0 9 -3 19 -7 23 -11 10 -12 37 -2 30 5 -3 9 -1 9 5 0
5 -5 13 -10 16 -6 4 -7 12 -3 18 12 19 16 65 4 48 -7 -10 -9 -7 -8 12 1 14 5
23 10 20 4 -2 7 3 7 12 0 10 -5 14 -12 9 -10 -6 -10 -4 0 7 14 16 16 33 2 24
-5 -3 -10 1 -10 10 0 9 5 13 10 10 13 -8 13 8 -1 22 -8 8 -8 13 0 17 6 4 11
12 11 17 0 6 -6 7 -12 3 -10 -6 -10 -5 -1 7 8 9 9 20 3 29 -6 8 -10 20 -10 25
0 6 4 5 8 -2 5 -9 17 -10 37 -4 17 5 24 10 16 10 -8 1 -12 4 -8 7 3 3 16 -1
28 -10 20 -14 24 -14 36 2 9 11 12 12 11 3 -2 -7 3 -16 11 -19 8 -2 11 0 7 6
-3 5 1 13 10 16 8 3 13 2 10 -3 -3 -5 1 -14 9 -21 13 -11 14 -10 9 5 -5 13 -4
16 5 11 18 -11 61 -15 55 -5 -3 5 0 9 5 9 6 0 11 -5 11 -11 0 -5 5 -7 10 -4 6
4 18 1 27 -7 9 -7 14 -8 10 -2 -4 7 5 11 24 12 20 0 27 -3 22 -11 -4 -7 0 -7
10 1 9 8 21 11 27 7 5 -3 10 -1 10 4 0 6 -5 11 -12 11 -6 0 -9 2 -6 5 3 3 17
-1 32 -9 29 -15 79 -10 54 5 -9 6 -9 9 -1 9 6 0 15 -4 18 -10 3 -5 14 -10 23
-10 15 0 15 2 2 10 -22 14 -7 12 33 -5 27 -11 37 -12 41 -2 5 9 7 9 12 0 4 -8
13 -9 30 -3 15 6 33 6 48 0 17 -6 26 -5 30 3 5 9 7 9 12 0 4 -8 13 -9 30 -3
15 6 34 6 49 0 14 -5 25 -6 25 -1 0 4 7 8 15 8 8 0 15 -4 15 -8 0 -5 7 -6 16
-2 13 5 13 7 2 14 -9 6 -9 9 -1 9 6 0 14 -4 17 -9 9 -13 53 -19 68 -9 9 7 7 8
-7 3 -16 -5 -17 -4 -8 6 9 8 16 9 25 2 17 -13 78 -22 78 -11 0 4 5 8 11 8 5 0
8 -4 5 -8 -6 -10 24 -9 40 1 6 3 21 5 33 2 12 -2 21 1 21 8 0 7 5 4 11 -6 8
-13 14 -15 29 -7 23 12 33 13 26 1 -4 -5 2 -8 11 -6 10 1 24 -3 32 -9 12 -9
13 -8 7 2 -6 10 -3 13 10 12 33 -4 45 0 38 11 -3 6 5 3 20 -6 15 -10 26 -13
26 -6 0 6 -5 11 -12 11 -6 0 -8 3 -5 6 4 4 13 2 20 -5 17 -13 77 -22 77 -11 0
5 -6 11 -12 13 -10 4 -10 6 -1 6 6 1 15 -3 18 -9 3 -5 14 -10 23 -10 15 0 15
2 2 11 -12 9 -12 10 3 5 10 -3 21 -6 23 -6 3 0 3 -4 0 -8 -2 -4 4 -8 15 -8 10
0 19 6 19 13 0 7 5 13 11 13 5 0 8 -4 4 -9 -3 -5 -1 -12 5 -16 5 -3 10 2 10
12 0 11 3 14 8 7 4 -6 15 -10 26 -8 10 1 28 -1 40 -5 24 -9 49 -3 40 10 -3 5
0 9 5 9 6 0 11 -7 11 -15 0 -17 16 -20 25 -5 3 6 11 10 16 10 6 0 8 -4 5 -8
-8 -13 32 -8 46 6 8 8 17 7 34 -5 13 -8 24 -11 24 -5 0 6 -6 13 -12 15 -10 4
-10 6 -1 6 6 1 15 -3 18 -9 3 -5 14 -10 23 -10 15 0 15 2 2 10 -8 5 -11 10 -7
10 4 0 19 -7 32 -16 14 -9 25 -12 25 -6 0 6 -6 13 -12 15 -10 4 -10 6 -1 6 6
1 15 -3 18 -9 3 -5 14 -10 23 -10 15 0 15 2 2 10 -13 8 -12 10 3 10 9 0 17 -8
18 -17 0 -12 2 -13 6 -5 4 10 8 10 21 0 12 -10 14 -10 8 0 -4 6 -3 12 1 12 5
0 15 -6 22 -12 11 -11 13 -10 8 4 -5 15 -4 16 13 6 15 -10 22 -10 32 0 6 6 17
12 22 12 6 0 4 -4 -4 -10 -8 -5 -12 -12 -8 -15 3 -3 13 1 22 10 9 9 16 12 16
6 0 -5 10 -8 21 -6 12 2 30 0 40 -6 15 -8 19 -6 19 8 0 15 2 15 16 -3 13 -16
15 -16 10 -1 -3 9 -1 17 4 17 6 0 10 -5 10 -11 0 -6 8 -9 19 -6 10 2 27 0 37
-6 18 -10 18 -9 4 9 -15 18 -14 18 14 0 25 -16 28 -16 23 -2 -5 14 -3 15 13 6
24 -13 33 -13 24 1 -5 8 -1 8 14 0 25 -13 35 -14 28 -2 -4 5 1 8 10 7 8 -1 19
-8 23 -15 6 -10 12 -9 25 4 15 15 16 15 16 0 0 -9 5 -13 10 -10 6 4 8 11 5 16
-4 5 -1 9 4 9 6 0 11 -5 11 -12 0 -6 3 -8 7 -5 3 4 13 1 21 -6 13 -10 14 -9 8
2 -7 10 -3 12 14 6 15 -5 25 -2 31 6 7 11 9 10 9 -4 0 -10 5 -15 10 -12 6 4 8
11 5 16 -4 5 -1 9 4 9 6 0 11 -5 11 -12 0 -6 3 -8 7 -5 3 4 13 1 21 -6 13 -10
14 -9 8 2 -7 10 -3 12 14 6 13 -4 20 -3 17 2 -3 5 4 10 16 10 15 2 18 0 8 -6
-8 -6 -9 -11 -3 -15 6 -3 14 -2 17 4 5 8 11 8 20 0 8 -7 15 -7 19 -1 3 5 0 12
-6 14 -9 4 -10 6 -1 6 6 1 15 -3 18 -9 3 -5 14 -10 23 -10 15 0 15 2 2 10 -8
5 -10 10 -4 10 6 0 17 -7 24 -15 7 -8 17 -12 22 -9 6 4 5 10 -3 15 -10 6 -10
9 -2 9 6 0 15 -4 18 -10 9 -14 69 -12 84 3 7 6 12 8 11 2 -5 -24 1 -27 15 -9
13 16 14 16 9 1 -5 -13 -2 -16 10 -11 9 3 16 1 16 -5 0 -6 5 -11 11 -11 5 0 7
6 3 13 -5 7 0 6 11 -3 10 -8 16 -10 12 -4 -3 6 0 11 8 11 8 0 12 -4 9 -8 -7
-12 20 -17 40 -6 15 7 18 6 14 -5 -7 -16 28 -22 38 -7 4 6 14 3 27 -8 14 -13
18 -14 13 -3 -4 9 -2 8 7 -2 8 -10 20 -18 28 -18 11 0 11 2 -1 10 -10 7 -11
10 -2 10 7 0 15 -7 18 -15 4 -8 11 -12 17 -8 7 4 8 0 3 -12 -6 -15 -4 -16 10
-4 14 11 18 10 34 -10 11 -16 20 -20 24 -12 4 6 2 11 -5 11 -7 0 -9 3 -6 7 4
3 15 -1 25 -10 10 -10 22 -14 27 -10 4 5 4 2 0 -6 -6 -11 -4 -13 9 -8 14 5 17
3 12 -8 -4 -10 1 -15 14 -15 11 0 20 -4 20 -10 0 -5 8 -6 17 -3 12 5 15 2 10
-10 -3 -9 -2 -17 3 -17 6 0 10 5 10 10 0 13 17 0 70 -52 21 -21 43 -38 49 -38
6 0 10 -6 8 -12 -1 -7 4 -12 10 -11 7 2 12 -3 10 -10 -1 -6 4 -11 11 -10 6 2
12 -6 12 -18 0 -11 5 -17 10 -14 6 3 10 -3 10 -13 0 -23 23 -45 36 -34 4 4 2
-1 -5 -11 -12 -15 -12 -17 3 -11 14 6 21 -5 17 -28 0 -5 4 -8 10 -8 5 0 8 -4
5 -9 -4 -5 -1 -11 5 -13 6 -2 12 -15 12 -30 1 -14 4 -25 6 -23 2 2 14 -17 27
-42 18 -36 21 -50 12 -60 -6 -8 -7 -13 -2 -11 5 2 11 -1 12 -7 2 -5 9 -16 15
-24 10 -12 9 -13 -3 -6 -13 7 -13 6 -2 -7 8 -10 12 -38 11 -74 -2 -37 2 -59 9
-62 7 -2 12 -8 12 -13 0 -6 -4 -8 -8 -5 -4 2 -8 -6 -8 -19 0 -13 4 -21 8 -19
4 3 8 0 8 -5 0 -6 -4 -11 -10 -11 -5 0 -10 -5 -10 -11 0 -5 4 -8 9 -5 5 4 8
-2 6 -11 -2 -10 -4 -18 -5 -18 -1 0 -3 -11 -6 -25 -3 -19 -2 -22 6 -10 8 12 9
11 7 -7 -2 -12 -6 -26 -10 -29 -4 -4 -1 -14 6 -22 9 -13 9 -14 0 -8 -8 4 -13
2 -13 -4 0 -6 -6 -8 -12 -5 -7 4 -5 0 4 -7 10 -9 14 -19 8 -28 -4 -7 -6 -20
-2 -28 4 -11 2 -13 -9 -7 -12 7 -12 6 -1 -7 10 -12 10 -18 1 -23 -8 -6 -7 -10
2 -16 10 -6 11 -9 2 -9 -7 0 -13 -12 -13 -26 0 -17 -4 -23 -12 -18 -8 5 -7 0
2 -11 12 -15 12 -17 1 -10 -11 6 -13 4 -8 -8 4 -10 0 -20 -11 -26 -10 -6 -12
-11 -4 -11 9 0 8 -6 -4 -25 -8 -13 -12 -30 -8 -36 4 -7 3 -9 -4 -5 -6 4 -10
-1 -9 -12 2 -26 -24 -83 -34 -76 -5 3 -9 -2 -9 -11 0 -10 -5 -13 -12 -9 -8 5
-7 0 2 -11 12 -15 12 -17 1 -10 -11 6 -13 4 -8 -8 3 -9 1 -19 -5 -23 -6 -4 -8
-3 -5 3 3 5 0 10 -8 10 -11 0 -12 -5 -3 -20 9 -17 8 -19 -6 -14 -9 4 -16 2
-16 -2 0 -5 6 -12 13 -14 6 -3 2 -6 -10 -6 -13 -1 -24 -5 -24 -11 -1 -5 -2
-16 -3 -22 -1 -7 -9 -12 -17 -12 -10 1 -16 -6 -15 -20 1 -12 -4 -20 -11 -19
-7 2 -13 -2 -13 -8 0 -6 -9 -9 -20 -6 -11 3 -20 2 -20 -2 0 -5 -12 -21 -26
-36 -18 -19 -20 -26 -8 -21 15 6 15 4 3 -11 -8 -9 -9 -14 -4 -11 6 4 17 3 25
-3 10 -6 11 -9 3 -9 -7 0 -13 -5 -13 -11 0 -5 5 -7 10 -4 6 3 10 0 10 -8 0 -8
12 -27 28 -42 15 -16 22 -25 15 -22 -7 5 -9 0 -5 -15 3 -12 7 -17 10 -10 6 19
32 -12 32 -40 0 -17 3 -19 9 -9 6 10 12 5 22 -17 7 -17 17 -28 21 -26 4 3 8 0
8 -5 0 -6 -6 -11 -12 -11 -9 0 -8 -3 2 -9 8 -6 17 -8 21 -5 4 2 9 -3 12 -10 3
-8 1 -17 -6 -20 -11 -4 18 -10 36 -7 5 1 5 -3 2 -9 -4 -6 1 -18 11 -25 11 -8
14 -15 7 -15 -6 0 3 -15 20 -33 18 -19 37 -32 42 -30 6 3 1 -3 -10 -12 -19
-15 -19 -16 -1 -13 10 2 23 -5 30 -17 6 -10 17 -25 24 -33 7 -7 10 -17 8 -20
-2 -4 2 -12 9 -19 11 -10 15 -10 19 0 3 7 5 0 3 -15 -2 -15 0 -33 5 -40 7 -9
8 -8 4 5 -4 11 -2 17 5 15 6 -2 9 -7 7 -12 -2 -4 7 -13 19 -19 21 -12 23 -15
23 -37 0 -5 6 -9 13 -7 7 1 12 -8 12 -24 -1 -14 5 -26 12 -26 6 0 9 5 6 11 -4
6 -2 7 3 3 5 -5 9 -14 9 -20 1 -7 7 -11 15 -9 11 3 11 0 0 -15 -8 -10 -11 -15
-6 -11 11 10 56 -37 56 -59 0 -14 2 -15 9 -5 7 11 10 10 15 -3 3 -9 4 -21 1
-26 -4 -5 2 -6 12 -2 10 3 15 3 11 -2 -4 -4 6 -21 23 -37 19 -19 28 -35 25
-45 -5 -13 -4 -14 8 -4 13 11 15 9 11 -8 -3 -15 0 -18 13 -14 9 3 14 3 10 -2
-11 -11 10 -45 28 -45 8 0 13 -4 10 -9 -3 -5 1 -11 9 -15 8 -3 15 -12 15 -20
0 -8 5 -18 12 -22 7 -5 8 -3 3 6 -6 9 -4 11 4 5 7 -4 11 -18 8 -31 -4 -21 -2
-22 17 -12 20 11 20 10 6 -8 -8 -10 -10 -16 -6 -12 5 4 15 0 23 -10 8 -9 12
-11 8 -4 -9 18 5 38 16 21 7 -11 9 -11 9 1 0 13 1 13 10 0 8 -12 10 -10 10 8
0 13 4 20 10 17 6 -3 10 1 10 9 0 9 9 16 20 16 11 0 20 5 20 11 0 5 -6 7 -12
3 -9 -5 -9 -2 1 9 15 18 26 23 16 7 -3 -5 -1 -10 4 -10 10 0 15 14 12 33 -1 5
3 6 9 2 5 -3 21 5 35 19 14 15 31 26 38 26 8 0 8 3 -1 9 -10 6 -8 10 8 14 13
3 19 10 15 17 -4 6 -1 9 7 8 7 -2 12 5 12 14 -1 10 1 17 5 16 3 0 15 0 26 1
17 1 18 3 5 11 -13 8 -12 10 3 10 9 0 17 6 17 13 0 6 18 28 40 47 22 19 40 39
40 44 0 4 12 17 26 28 14 11 23 26 20 34 -3 8 0 11 8 8 8 -3 17 0 22 7 4 8 3
10 -4 5 -7 -4 -12 -2 -12 3 0 6 10 11 23 11 18 0 19 2 7 10 -13 8 -12 10 3 10
10 0 15 5 12 10 -3 5 2 10 12 10 15 0 16 2 3 10 -11 7 -11 10 -2 10 7 0 10 5
7 10 -4 6 -1 9 7 8 7 -2 12 3 11 10 -2 6 2 12 8 12 5 0 8 4 4 9 -3 5 -1 12 5
16 5 3 10 1 10 -5 0 -6 4 -9 10 -5 5 3 7 12 4 20 -8 19 22 50 30 32 3 -6 5 -3
5 8 -2 38 1 45 19 46 11 0 13 2 4 6 -10 4 -8 9 7 20 12 8 19 19 16 24 -4 5 2
9 12 9 14 0 15 2 5 9 -11 7 -11 11 2 23 11 12 12 18 3 28 -10 10 -8 10 11 1
20 -11 22 -10 22 19 0 22 4 29 13 24 6 -4 9 -3 4 1 -4 5 1 17 10 28 10 11 12
17 5 13 -8 -5 -4 10 9 35 13 24 22 47 21 51 -1 4 5 5 14 1 12 -4 14 0 8 21 -4
16 -2 26 5 26 6 0 11 12 11 28 0 21 2 24 10 12 8 -12 10 -9 10 13 0 20 4 26
13 21 7 -5 6 0 -3 11 -9 11 -10 16 -2 11 6 -4 12 -3 12 1 0 5 -6 15 -12 22
-11 10 -10 12 2 9 10 -2 14 3 12 16 -2 10 1 16 5 13 5 -3 15 4 23 16 12 20 12
21 -3 8 -21 -17 -22 -2 -2 27 9 12 15 30 13 39 -2 11 2 17 11 15 12 -3 12 -1
0 14 -8 10 -9 15 -3 11 15 -9 38 60 36 108 -1 29 1 36 8 25 13 -21 12 -3 -1
22 -8 15 -8 19 0 14 11 -7 16 12 12 43 -2 7 2 11 7 7 5 -3 9 1 9 9 0 8 -4 12
-8 10 -10 -7 -5 16 9 43 12 20 9 26 -11 23 -5 -1 -6 3 -2 9 3 5 14 10 23 10
10 0 13 3 6 8 -6 4 -14 16 -17 27 -7 19 -6 19 7 2 13 -16 14 -15 12 10 -1 15
-5 34 -10 42 -6 10 -5 12 2 7 7 -4 12 -1 12 8 0 9 -6 16 -12 16 -9 0 -8 4 2
10 8 5 11 10 5 10 -5 0 -4 5 3 12 7 7 8 17 1 30 -7 12 -6 18 1 18 6 0 8 10 4
25 -4 17 -2 25 7 25 12 0 12 2 0 9 -8 5 -12 18 -8 30 3 12 2 21 -1 21 -4 0 -6
28 -4 62 1 35 3 70 2 78 0 8 0 27 0 43 0 15 -5 27 -12 27 -11 0 -11 2 0 8 13
9 12 38 -1 59 -13 22 -16 53 -5 53 6 0 4 10 -5 24 -11 16 -12 27 -5 34 6 6 6
12 -1 16 -5 4 -8 13 -5 20 3 8 1 17 -5 20 -6 4 -7 14 -4 23 4 10 2 14 -4 10
-13 -8 -12 11 1 32 6 10 5 12 -3 7 -8 -5 -11 2 -9 25 2 19 -3 34 -10 37 -10 3
-10 7 0 20 11 13 11 14 0 8 -10 -6 -13 -2 -10 15 2 16 -2 23 -10 21 -10 -2
-10 2 -2 17 13 25 13 31 -1 31 -5 0 -7 -5 -3 -12 4 -7 3 -8 -5 -4 -9 6 -9 11
0 22 9 11 8 15 -5 20 -13 5 -14 9 -5 20 9 11 8 14 -4 14 -9 0 -19 5 -23 12 -4
7 -3 8 4 4 8 -5 12 0 12 14 0 11 -6 23 -14 26 -8 3 -17 12 -20 20 -4 10 -2 13
7 8 8 -6 8 -3 -1 9 -8 9 -11 21 -7 27 3 5 0 13 -9 16 -8 3 -12 12 -9 20 3 8 0
14 -7 14 -6 0 -8 5 -5 10 3 6 1 10 -5 10 -6 0 -9 4 -6 8 3 5 -1 20 -9 35 -7
14 -10 29 -7 33 4 4 1 3 -7 -1 -11 -6 -13 -4 -8 8 4 10 2 16 -6 14 -7 -1 -11
6 -9 16 2 9 -4 20 -12 23 -8 3 -12 12 -9 20 3 7 -2 17 -11 20 -9 3 -13 10 -10
16 3 5 -2 15 -12 22 -10 8 -15 20 -11 29 4 11 2 14 -7 11 -8 -3 -17 0 -22 7
-5 8 -3 10 7 4 11 -7 11 -5 -1 10 -8 10 -15 21 -15 24 0 3 -4 5 -8 3 -5 -1 -7
5 -5 15 2 10 -8 28 -24 41 -16 13 -25 29 -22 34 4 6 -4 20 -17 30 -13 11 -18
16 -10 12 10 -5 12 -3 7 5 -5 7 -14 10 -22 7 -8 -3 -11 0 -8 9 3 8 -7 26 -23
41 -15 15 -21 24 -13 20 8 -4 5 1 -7 10 -13 9 -23 23 -23 30 0 7 -11 21 -24
30 -16 10 -23 22 -19 32 4 15 3 15 -6 2 -10 -13 -15 -8 -12 12 0 5 -5 7 -12 5
-6 -1 -11 6 -9 15 2 13 -2 16 -14 11 -14 -5 -16 -3 -11 11 4 10 3 15 -3 11 -6
-3 -10 -1 -10 5 0 6 -4 9 -9 5 -5 -3 -11 5 -13 17 -2 15 -9 22 -20 22 -10 -1
-15 2 -12 7 3 5 0 9 -6 9 -6 0 -16 11 -22 25 -6 14 -20 25 -30 25 -11 0 -16 5
-13 10 3 6 -3 10 -14 10 -12 0 -20 4 -18 9 4 15 -51 61 -58 48 -3 -7 -4 -3 -1
9 2 12 -2 21 -10 21 -7 0 -11 -4 -9 -8 3 -4 -4 -5 -16 -2 -14 4 -17 8 -9 13 9
6 5 13 -13 25 -15 9 -32 13 -39 9 -9 -6 -9 -3 1 9 12 15 12 17 -4 11 -12 -5
-16 -4 -12 3 4 6 -3 10 -15 9 -14 -1 -27 8 -35 24 -7 14 -13 19 -13 13 0 -7
-5 -13 -11 -13 -5 0 -7 5 -4 10 5 9 -15 15 -37 11 -4 0 -5 6 -2 14 4 10 0 13
-15 10 -12 -2 -21 0 -21 6 0 5 -9 9 -20 9 -14 0 -18 5 -13 18 6 15 5 16 -12 2
-17 -14 -18 -13 -12 3 6 17 0 20 -45 20 -10 0 -15 4 -11 10 4 6 0 8 -10 4 -12
-4 -17 -1 -17 10 0 13 -2 14 -17 2 -11 -10 -14 -10 -9 -1 5 8 0 12 -14 12 -13
0 -19 4 -14 11 4 7 0 9 -14 5 -14 -5 -24 -1 -30 9 -5 9 -12 16 -15 16 -28 -4
-57 1 -53 8 3 5 -13 8 -36 7 -27 -1 -44 4 -51 14 -6 11 -20 14 -44 12 -28 -4
-34 -2 -27 9 6 11 3 10 -11 -1 -11 -9 -16 -10 -11 -2 5 8 -1 12 -22 12 -16 0
-32 3 -36 7 -3 4 -17 8 -29 10 -17 2 -19 1 -7 -7 8 -5 11 -10 5 -10 -5 1 -18
7 -28 14 -9 7 -28 11 -41 9 -13 -3 -27 0 -30 6 -4 6 -13 11 -19 11 -7 0 -6 -4
3 -10 13 -8 13 -10 -2 -10 -9 0 -20 5 -23 10 -4 6 -12 7 -18 3 -16 -10 -68
-13 -63 -4 3 4 -10 7 -29 7 -19 0 -32 -3 -29 -7 2 -4 -7 -2 -20 4 -13 7 -22
16 -19 21 4 5 1 6 -6 2 -6 -4 -9 -11 -6 -16 6 -9 -28 -6 -45 5 -6 3 -10 0 -11
-7 0 -7 -4 -4 -9 7 -5 11 -9 14 -9 8 -1 -7 -10 -13 -22 -13 -13 0 -18 4 -13
13 6 8 3 8 -9 -2 -10 -8 -24 -10 -34 -5 -25 11 -53 13 -47 3 2 -4 12 -6 22 -3
14 5 14 4 3 -4 -10 -7 -21 -7 -33 -1 -20 11 -40 8 -50 -6 -5 -6 -8 -5 -8 3 0
7 -4 10 -10 7 -5 -3 -10 -1 -10 5 0 7 -7 5 -16 -4 -21 -21 -30 -20 -13 1 10
11 10 14 2 9 -21 -12 -53 -16 -53 -5 0 5 -5 9 -11 9 -5 0 -7 -4 -4 -10 4 -6
-5 -10 -20 -10 -18 0 -24 4 -19 13 6 10 4 10 -7 0 -16 -15 -33 -17 -24 -3 10
17 -7 11 -22 -7 -12 -15 -14 -15 -10 -2 3 9 -1 16 -9 16 -7 0 -11 -4 -8 -9 8
-12 -10 -10 -24 4 -8 8 -15 8 -26 -1 -8 -7 -17 -8 -20 -3 -6 10 -52 10 -62 -1
-4 -4 -14 -7 -23 -7 -14 0 -14 2 -1 10 12 8 10 9 -7 7 -12 -2 -26 -6 -29 -10
-4 -4 -14 -7 -23 -7 -14 0 -14 2 -1 10 12 8 10 10 -8 10 -13 0 -21 -4 -18 -8
2 -4 -4 -8 -14 -8 -10 0 -16 4 -14 8 3 4 -2 8 -11 8 -9 0 -14 -4 -11 -8 2 -4
-4 -8 -14 -8 -10 0 -16 4 -14 8 3 4 -2 8 -11 8 -9 0 -14 -4 -11 -8 3 -5 -1 -9
-9 -9 -8 0 -12 4 -9 9 8 13 -10 10 -25 -4 -11 -10 -13 -10 -7 0 5 7 1 12 -9
12 -9 0 -14 -4 -11 -8 3 -5 -1 -9 -9 -9 -8 0 -12 4 -9 9 8 13 -10 10 -25 -4
-11 -10 -13 -10 -7 0 5 8 -2 12 -24 12 -22 0 -29 -4 -24 -12 6 -10 5 -10 -7
-1 -12 10 -18 10 -29 0 -10 -9 -11 -9 -6 1 5 7 1 12 -9 12 -9 0 -14 -4 -11 -8
3 -5 -1 -9 -8 -9 -9 0 -12 7 -8 16 4 14 2 13 -15 -1 -11 -10 -24 -18 -29 -18
-5 0 -2 5 6 10 11 7 7 10 -18 10 -18 0 -31 -4 -28 -8 2 -4 -6 -8 -19 -8 -13 0
-21 4 -19 8 8 12 -40 10 -53 -3 -8 -8 -13 -8 -17 0 -10 15 -29 14 -20 -1 6
-10 4 -10 -7 0 -14 13 -33 17 -25 4 2 -4 -6 -8 -19 -8 -13 0 -21 4 -19 8 3 4
-2 8 -11 8 -9 0 -14 -4 -11 -8 3 -5 -1 -9 -9 -9 -8 0 -12 4 -10 7 3 4 -6 8
-20 8 -14 0 -23 -4 -20 -8 2 -3 -2 -7 -10 -7 -8 0 -12 4 -9 9 8 13 -10 10 -25
-4 -11 -10 -13 -10 -7 0 9 15 1 15 -26 1 -15 -8 -19 -8 -14 0 4 6 0 11 -9 11
-9 0 -14 -4 -11 -8 3 -5 -1 -9 -9 -9 -8 0 -12 4 -9 9 8 13 -10 10 -25 -4 -11
-10 -13 -10 -7 0 5 7 1 12 -9 12 -9 0 -14 -4 -11 -8 3 -5 -1 -9 -9 -9 -8 0
-12 4 -10 7 3 4 -6 8 -20 8 -14 0 -23 -4 -20 -8 2 -3 -2 -7 -10 -7 -8 0 -12 4
-9 9 8 13 -10 10 -25 -4 -11 -10 -13 -10 -7 0 9 15 1 15 -26 1 -15 -8 -19 -8
-14 0 4 6 0 11 -9 11 -9 0 -14 -4 -11 -8 3 -5 -1 -9 -9 -9 -8 0 -12 4 -9 9 8
13 -10 10 -25 -4 -11 -10 -13 -10 -7 0 5 7 1 12 -9 12 -9 0 -14 -4 -11 -8 3
-5 -1 -9 -9 -9 -8 0 -12 4 -9 9 8 13 -10 10 -25 -4 -11 -10 -13 -10 -7 0 5 8
-2 12 -24 12 -22 0 -29 -4 -24 -12 6 -10 4 -10 -8 0 -11 9 -18 10 -23 2 -3 -5
-12 -10 -18 -10 -7 0 -6 4 3 10 11 7 6 10 -22 10 -20 0 -40 -4 -43 -10 -3 -5
-12 -10 -18 -10 -7 0 -6 4 3 10 13 9 13 10 0 10 -9 0 -22 -6 -29 -12 -11 -10
-13 -10 -7 0 5 8 -1 12 -19 12 -14 0 -24 -4 -21 -8 3 -5 -1 -9 -9 -9 -8 0 -12
4 -9 9 8 13 -10 10 -25 -4 -11 -10 -13 -10 -7 0 8 14 -10 17 -19 2 -3 -5 -12
-10 -18 -10 -7 0 -6 4 3 10 22 14 -5 13 -32 -1 -15 -8 -19 -8 -14 0 4 6 4 11
1 11 -4 0 -16 -5 -27 -11 -15 -8 -19 -8 -14 0 4 6 0 11 -9 11 -9 0 -14 -4 -11
-8 3 -5 -1 -9 -9 -9 -8 0 -12 4 -9 9 8 13 -10 10 -25 -4 -11 -10 -13 -10 -7 0
5 7 1 12 -9 12 -9 0 -14 -4 -11 -8 3 -5 -1 -9 -9 -9 -8 0 -12 4 -9 9 8 13 -10
10 -25 -4 -11 -10 -13 -10 -7 0 4 6 3 12 -1 12 -5 0 -15 -6 -22 -12 -11 -10
-13 -10 -7 0 9 15 -27 16 -56 1 -15 -8 -19 -8 -14 0 4 6 0 11 -9 11 -9 0 -14
-4 -11 -8 3 -5 -1 -9 -9 -9 -8 0 -12 4 -9 9 3 4 1 8 -5 8 -5 0 -13 -4 -16 -10
-3 -5 -12 -10 -18 -10 -7 0 -6 4 3 10 22 14 -5 13 -32 -1 -15 -8 -19 -8 -14 0
10 15 -7 14 -23 -1 -11 -10 -13 -10 -7 0 5 7 1 12 -9 12 -9 0 -14 -4 -11 -8 3
-5 -1 -9 -9 -9 -8 0 -12 4 -9 9 8 13 -10 10 -25 -4 -11 -10 -13 -10 -7 0 4 6
3 12 -1 12 -5 0 -15 -6 -22 -12 -11 -10 -13 -10 -7 0 4 6 3 12 -1 12 -5 0 -15
-6 -22 -12 -11 -10 -13 -10 -7 0 9 15 1 15 -26 1 -15 -8 -19 -8 -14 0 4 6 0
11 -9 11 -9 0 -14 -4 -11 -8 3 -5 -1 -9 -9 -9 -8 0 -12 4 -9 9 3 4 -2 8 -11 8
-10 0 -13 -5 -9 -12 4 -7 -3 -4 -16 7 -17 15 -22 16 -18 5 4 -11 0 -16 -12
-16 -10 0 -16 4 -14 8 3 4 1 8 -5 8 -5 0 -12 -6 -14 -12 -4 -10 -6 -10 -6 0
-1 6 -8 12 -17 12 -8 0 -13 -4 -10 -8 3 -5 -1 -9 -9 -9 -8 0 -12 4 -10 7 3 4
-6 8 -20 8 -15 0 -22 -5 -18 -12 3 -6 0 -6 -8 2 -15 14 -33 17 -25 4 3 -5 -1
-9 -9 -9 -8 0 -12 4 -9 9 3 4 1 8 -5 8 -5 0 -13 -4 -16 -10 -3 -5 -12 -10 -18
-10 -7 0 -6 4 3 10 12 8 10 10 -8 10 -13 0 -21 -4 -18 -8 3 -5 -1 -9 -9 -9 -8
0 -12 4 -9 9 8 13 -10 10 -25 -4 -11 -10 -13 -10 -7 0 5 7 1 12 -9 12 -10 0
-14 -5 -9 -12 6 -10 4 -10 -7 0 -14 13 -33 17 -25 4 2 -4 -4 -8 -14 -8 -14 0
-16 3 -8 13 14 17 7 16 -19 -2z m-1536 -1010 c0 -8 -4 -12 -9 -9 -5 3 -6 10
-3 15 9 13 12 11 12 -6z m0 -57 c-3 -7 -5 -2 -5 12 0 14 2 19 5 13 2 -7 2 -19
0 -25z m1898 -298 c3 -6 -1 -7 -9 -4 -18 7 -21 14 -7 14 6 0 13 -4 16 -10z
m150 0 c3 -6 -1 -7 -9 -4 -18 7 -21 14 -7 14 6 0 13 -4 16 -10z m960 0 c3 -6
-1 -7 -9 -4 -18 7 -21 14 -7 14 6 0 13 -4 16 -10z m2292 -372 c-3 -8 -6 -5 -6
6 -1 11 2 17 5 13 3 -3 4 -12 1 -19z m-5297 -433 c0 -8 -4 -15 -10 -15 -5 0
-7 7 -4 15 4 8 8 15 10 15 2 0 4 -7 4 -15z m6873 -640 c-3 -8 -10 -15 -15 -15
-7 0 -6 5 1 13 6 8 7 18 3 22 -4 5 -2 5 5 1 7 -4 10 -13 6 -21z m-6876 -560
c0 -8 -4 -12 -9 -9 -5 3 -6 10 -3 15 9 13 12 11 12 -6z m0 -934 c0 -11 -5 -18
-9 -15 -4 3 -5 11 -1 19 7 21 12 19 10 -4z"/>
<path d="M4310 6181 c0 -6 4 -13 10 -16 6 -3 7 1 4 9 -7 18 -14 21 -14 7z"/>
<path d="M4204 5792 c-4 -12 -10 -19 -15 -16 -8 5 -13 -9 -10 -28 0 -5 -5 -7
-11 -5 -7 1 -12 -4 -10 -12 2 -11 0 -12 -10 -3 -11 9 -14 6 -12 -18 1 -21 -2
-27 -13 -23 -9 4 -16 -2 -20 -16 -3 -12 -10 -18 -17 -14 -6 4 -5 -1 3 -10 12
-15 12 -17 -2 -11 -12 4 -15 1 -12 -15 2 -12 1 -19 -4 -17 -4 3 -11 2 -16 -2
-15 -11 -41 -47 -29 -39 6 3 11 0 11 -8 0 -8 -4 -12 -8 -9 -10 6 -40 -26 -34
-36 3 -5 -4 -7 -15 -5 -27 5 -26 -3 3 -15 l22 -9 -23 0 c-13 -1 -20 -5 -17
-11 3 -5 0 -10 -8 -10 -19 0 -30 -27 -14 -34 7 -2 4 -5 -5 -5 -10 -1 -18 -8
-18 -17 0 -8 -4 -12 -10 -9 -5 3 -10 -3 -10 -14 0 -12 -5 -21 -11 -21 -5 0 -7
-5 -3 -12 5 -8 2 -9 -9 -5 -13 5 -17 1 -17 -18 0 -19 -5 -25 -22 -25 -13 0
-18 -4 -13 -8 13 -9 19 -35 7 -28 -5 3 -20 -3 -32 -14 -13 -11 -19 -20 -14
-20 5 0 1 -5 -8 -11 -10 -5 -18 -19 -18 -30 0 -11 -4 -18 -9 -15 -5 3 -8 -2
-7 -11 0 -10 -6 -18 -14 -18 -8 -1 -14 -6 -13 -13 2 -7 -2 -12 -7 -12 -6 0
-10 -7 -10 -15 0 -9 -11 -27 -25 -41 -14 -14 -22 -30 -19 -36 4 -7 2 -8 -4 -4
-7 4 -12 1 -12 -9 0 -9 -4 -13 -10 -10 -5 3 -10 -2 -10 -12 0 -15 -2 -16 -11
-3 -8 12 -9 9 -4 -9 6 -20 4 -23 -9 -18 -10 4 -15 3 -12 -1 2 -4 -4 -25 -14
-47 -11 -22 -19 -34 -20 -27 0 6 -4 12 -10 12 -5 0 -6 -7 -3 -17 4 -10 2 -14
-5 -9 -7 4 -10 -1 -7 -15 3 -16 0 -19 -12 -15 -11 4 -14 2 -10 -9 7 -18 -20
-48 -35 -39 -6 4 -8 2 -5 -4 11 -16 -3 -41 -18 -35 -10 3 -13 -1 -10 -16 2
-14 -1 -21 -11 -21 -8 0 -12 -4 -9 -10 3 -5 1 -10 -5 -10 -6 0 -8 -4 -5 -10 3
-5 2 -10 -4 -10 -5 0 -12 6 -15 13 -2 6 -4 1 -3 -13 1 -17 -3 -24 -12 -22 -12
3 -12 1 -1 -13 11 -14 11 -16 -1 -13 -8 2 -13 -4 -13 -14 1 -10 -1 -16 -5 -14
-12 8 -34 -12 -36 -31 -1 -22 -40 -64 -50 -55 -4 4 -6 2 -5 -3 5 -23 -1 -35
-17 -35 -15 0 -16 -2 -3 -10 12 -8 12 -10 -5 -11 -11 0 -14 -3 -7 -6 9 -4 7
-10 -7 -22 -12 -10 -18 -21 -14 -25 3 -3 -1 -6 -10 -6 -10 0 -17 -8 -17 -20 0
-12 -7 -20 -17 -20 -14 0 -15 -2 -5 -9 10 -6 8 -10 -8 -14 -17 -4 -20 -10 -15
-29 4 -16 3 -19 -3 -9 -12 16 -27 -3 -16 -21 4 -7 3 -8 -4 -4 -7 4 -12 2 -12
-4 0 -6 -4 -9 -9 -5 -5 3 -12 1 -16 -5 -3 -5 1 -10 10 -10 13 0 14 -2 3 -14
-7 -8 -16 -12 -20 -9 -5 2 -8 -3 -8 -11 0 -9 -8 -16 -17 -17 -15 0 -15 -2 2
-9 14 -6 16 -9 5 -10 -8 -2 -19 -2 -24 -1 -5 1 -3 -6 5 -15 13 -16 12 -16 -11
-4 -23 12 -24 12 -11 -3 9 -12 10 -17 2 -17 -7 0 -10 -4 -7 -9 8 -12 -29 -43
-39 -34 -5 5 -3 -1 5 -11 10 -13 10 -17 3 -12 -9 5 -13 1 -14 -11 0 -16 -1
-16 -9 2 -9 20 -15 7 -11 -23 3 -19 -26 -45 -32 -29 -3 6 -6 0 -6 -15 -1 -20
-5 -26 -16 -22 -10 4 -13 0 -10 -15 2 -11 1 -20 -3 -18 -4 1 -7 0 -7 -3 0 -11
-30 -38 -37 -33 -7 4 -10 -12 -7 -33 0 -4 -3 -10 -8 -13 -4 -3 -13 -15 -20
-26 -6 -11 -16 -19 -22 -17 -6 1 -11 -5 -11 -13 0 -9 -7 -18 -16 -22 -13 -5
-13 -7 -2 -14 10 -7 10 -9 -2 -9 -8 0 -21 -13 -28 -30 -9 -20 -21 -30 -35 -31
-21 0 -21 -1 -2 -9 l20 -9 -20 0 c-17 -1 -18 -3 -5 -12 12 -9 10 -10 -8 -6
-20 5 -22 3 -10 -11 10 -12 10 -14 1 -8 -8 4 -13 2 -13 -4 0 -6 -5 -8 -12 -4
-8 5 -7 0 2 -11 8 -10 11 -16 5 -13 -12 7 -36 -17 -27 -28 4 -4 1 -3 -7 1 -11
6 -13 4 -8 -8 4 -11 2 -14 -7 -11 -8 3 -17 0 -22 -7 -5 -8 -3 -10 7 -4 11 7
12 6 2 -7 -7 -8 -10 -18 -6 -21 3 -4 -7 -7 -23 -8 -16 0 -23 -3 -16 -6 6 -2
12 -9 12 -14 0 -6 -5 -7 -12 -3 -8 5 -9 0 -5 -15 4 -18 3 -20 -9 -10 -12 10
-13 9 -7 -6 5 -14 3 -17 -9 -13 -8 4 -15 0 -16 -8 -1 -8 -3 -21 -4 -28 -1 -8
-4 -15 -7 -14 -22 2 -31 -5 -31 -22 0 -11 -5 -20 -11 -20 -5 0 -7 -4 -4 -10 3
-5 1 -10 -6 -10 -15 0 -59 -51 -59 -67 0 -7 -5 -13 -11 -13 -5 0 -8 -3 -6 -7
5 -11 -30 -43 -38 -35 -4 4 -6 2 -5 -3 5 -22 -1 -36 -12 -29 -8 5 -9 2 -5 -9
3 -10 2 -17 -4 -17 -6 0 -7 -6 -3 -12 6 -10 5 -10 -8 0 -13 10 -15 8 -11 -15
3 -24 2 -25 -6 -8 -9 18 -10 18 -10 2 -1 -10 -8 -25 -16 -34 -8 -8 -12 -19 -9
-25 4 -6 3 -9 -2 -6 -11 6 -45 -28 -36 -36 3 -3 -3 -6 -14 -6 -16 0 -17 -2 -4
-10 13 -8 12 -10 -2 -10 -17 0 -23 -12 -19 -34 1 -5 -5 -4 -13 3 -12 10 -14 9
-9 -8 3 -12 1 -21 -6 -21 -6 0 -11 -10 -11 -22 0 -19 -2 -20 -10 -8 -7 11 -10
11 -10 2 0 -7 -4 -11 -9 -7 -5 3 -13 0 -17 -6 -4 -8 -3 -9 4 -5 19 11 14 -9
-8 -34 -11 -12 -17 -26 -14 -31 3 -5 -2 -6 -12 -2 -13 5 -15 2 -9 -18 7 -23 7
-23 -8 -4 -16 20 -16 20 -10 -2 3 -14 1 -23 -6 -23 -7 0 -9 -5 -6 -10 4 -6 3
-10 -2 -9 -22 4 -31 -3 -26 -21 4 -16 0 -20 -18 -20 -14 0 -19 -3 -13 -8 9 -5
8 -11 -2 -20 -8 -7 -14 -9 -14 -5 0 4 -5 0 -11 -10 -5 -9 -7 -21 -4 -27 3 -5
-5 -7 -17 -5 -22 4 -22 4 -4 -10 17 -13 18 -15 3 -15 -9 0 -17 -6 -17 -12 0
-9 -4 -8 -11 2 -9 12 -10 11 -6 -7 3 -13 1 -23 -5 -23 -5 0 -6 -4 -3 -10 4 -6
-1 -7 -11 -3 -14 5 -16 3 -11 -11 4 -11 3 -15 -4 -11 -6 4 -9 1 -7 -6 1 -8 1
-14 -2 -14 -10 0 -38 -30 -34 -36 2 -4 -3 -10 -12 -13 -9 -4 -14 -13 -10 -21
3 -8 1 -15 -4 -15 -6 0 -10 6 -11 13 0 6 -4 1 -10 -11 -5 -13 -6 -29 -2 -35 3
-7 3 -9 -2 -5 -4 4 -14 0 -22 -10 -8 -9 -12 -11 -8 -4 9 17 0 15 -16 -5 -10
-11 -10 -14 -1 -9 6 4 12 2 12 -3 0 -6 -5 -11 -11 -11 -5 0 -7 -4 -4 -10 3 -5
-1 -10 -10 -10 -9 0 -14 -4 -11 -9 3 -4 -6 -21 -19 -37 -14 -16 -25 -33 -25
-37 0 -5 -4 -6 -9 -3 -5 3 -15 -2 -22 -11 -8 -10 -9 -14 -2 -10 6 4 15 2 19
-4 4 -8 3 -9 -5 -5 -6 4 -14 0 -17 -8 -3 -9 -12 -16 -20 -16 -8 0 -11 -6 -7
-17 4 -10 2 -14 -4 -10 -6 4 -17 -1 -24 -10 -10 -12 -10 -14 -1 -9 6 4 12 2
12 -3 0 -6 -10 -11 -22 -12 -13 0 -17 -3 -10 -6 6 -2 12 -9 12 -14 0 -6 -4 -7
-10 -4 -5 3 -10 1 -10 -5 0 -6 -4 -8 -10 -5 -5 3 -10 1 -10 -4 0 -6 6 -11 13
-11 6 0 -8 -14 -33 -30 -25 -16 -39 -30 -32 -30 6 0 12 -5 12 -11 0 -5 -4 -7
-10 -4 -5 3 -10 -3 -10 -14 0 -14 -6 -21 -20 -21 -14 0 -20 -7 -20 -21 0 -11
-4 -18 -8 -15 -4 2 -14 1 -22 -5 -8 -5 -10 -9 -4 -9 6 0 11 -6 11 -14 0 -8 -5
-14 -11 -13 -5 1 -11 -5 -11 -13 0 -8 -6 -14 -13 -13 -6 2 -9 -4 -6 -12 5 -11
2 -13 -12 -8 -12 4 -15 3 -10 -5 4 -7 2 -12 -3 -12 -6 0 -11 -7 -11 -16 0 -20
-25 -45 -35 -36 -5 4 -5 -1 -2 -10 7 -20 -9 -35 -16 -16 -3 8 -6 6 -6 -5 -1
-12 -5 -16 -13 -11 -8 5 -7 0 2 -11 9 -11 10 -16 2 -11 -7 4 -12 2 -12 -8 0
-8 -9 -21 -20 -29 -11 -8 -17 -17 -13 -20 3 -4 -1 -7 -10 -7 -10 0 -17 -5 -17
-11 0 -5 5 -7 12 -3 7 5 8 3 4 -5 -5 -7 -15 -10 -23 -6 -14 5 -14 3 -2 -12 9
-11 10 -14 2 -9 -8 4 -13 1 -13 -8 0 -9 -19 -29 -42 -46 -30 -22 -36 -30 -22
-31 18 0 18 -1 -1 -9 -11 -5 -15 -9 -8 -9 6 -1 -3 -16 -20 -34 -18 -18 -38
-31 -45 -29 -8 3 -10 -2 -6 -12 4 -10 1 -16 -7 -16 -11 0 -11 -3 1 -11 12 -9
10 -10 -8 -6 -20 5 -21 3 -11 -9 10 -12 10 -15 -2 -12 -10 2 -13 -5 -11 -22 2
-14 -1 -20 -5 -15 -4 6 -14 11 -22 13 -11 2 -12 0 -4 -10 15 -17 -7 -48 -33
-49 -11 0 -13 -3 -6 -6 6 -2 12 -9 12 -14 0 -6 -4 -8 -9 -5 -5 3 -14 0 -20 -8
-9 -11 -9 -15 1 -20 7 -3 3 -4 -10 -2 -19 4 -21 2 -11 -10 10 -12 10 -15 -1
-12 -8 2 -19 -7 -25 -19 -5 -13 -13 -23 -18 -23 -4 0 -5 -4 -2 -10 3 -5 -1
-10 -9 -10 -9 0 -16 -9 -16 -20 0 -11 -5 -20 -11 -20 -5 0 -7 -5 -3 -12 5 -8
2 -9 -9 -5 -10 3 -17 2 -17 -3 0 -6 6 -10 13 -10 8 0 7 -3 -3 -9 -8 -6 -18 -7
-22 -5 -5 3 -8 2 -7 -3 1 -4 0 -17 -1 -28 -2 -17 -3 -17 -10 5 l-8 25 -1 -27
c-1 -20 -6 -28 -18 -28 -15 0 -16 -2 -3 -10 13 -8 12 -10 -2 -10 -10 0 -18 -7
-18 -16 0 -9 -5 -12 -12 -8 -10 6 -10 4 0 -8 11 -14 10 -16 -10 -12 -13 2 -17
2 -10 -2 6 -3 12 -11 12 -16 0 -6 -3 -9 -6 -5 -8 8 -34 -18 -34 -33 0 -6 -5
-8 -10 -5 -6 4 -10 3 -9 -2 3 -20 -2 -34 -11 -28 -6 4 -9 -9 -8 -33 1 -37 3
-40 27 -36 14 3 32 7 40 9 7 3 20 -3 28 -12 8 -10 12 -12 8 -5 -3 6 0 12 7 12
9 0 9 3 -2 10 -8 5 -10 10 -4 10 6 0 24 -10 40 -22 15 -13 25 -17 20 -10 -4 6
-4 12 1 13 4 0 18 2 31 3 12 2 22 -1 22 -5 0 -4 14 -4 32 1 25 8 34 6 45 -8 8
-9 12 -12 9 -6 -3 7 3 14 14 17 11 3 20 1 20 -5 0 -5 4 -6 10 -3 14 9 168 10
176 2 4 -4 16 1 27 10 11 10 17 13 13 6 -5 -9 6 -11 44 -9 27 2 53 0 56 -6 3
-5 15 -1 27 9 11 10 17 12 13 5 -10 -16 25 -13 36 3 5 6 8 5 8 -2 0 -8 13 -12
35 -11 21 1 32 5 29 12 -3 6 1 3 8 -6 9 -10 19 -14 28 -8 7 4 27 6 43 4 16 -2
38 1 48 6 14 8 20 6 28 -7 6 -10 11 -14 11 -9 0 5 7 3 16 -4 12 -11 15 -11 12
1 -2 10 5 13 25 11 15 -2 35 2 44 10 9 7 14 8 10 2 -4 -7 2 -11 18 -11 14 0
22 4 19 9 -3 5 3 4 14 -3 17 -11 24 -10 38 2 15 12 17 12 9 0 -6 -11 -4 -13 8
-8 10 3 17 2 17 -4 0 -6 5 -7 10 -4 6 4 8 10 6 14 -3 4 1 8 9 8 8 0 12 -4 9
-8 -2 -4 5 -7 16 -6 11 1 20 6 20 12 0 5 5 3 10 -7 6 -10 18 -14 30 -11 11 3
17 10 13 17 -4 7 -1 6 9 -1 8 -7 18 -10 21 -6 4 3 14 0 23 -8 10 -8 19 -10 21
-4 1 6 23 10 48 9 26 0 45 4 45 10 0 6 4 5 9 -2 5 -8 19 -11 36 -8 19 4 36 0
48 -12 19 -16 20 -16 7 8 l-13 24 26 -17 c16 -10 28 -13 32 -7 4 7 12 7 23 1
11 -6 20 -4 29 7 11 16 12 16 13 1 0 -14 6 -16 35 -9 21 5 35 4 35 -2 0 -5 5
-6 12 -2 6 4 28 6 50 6 33 -2 38 1 39 21 0 12 3 16 6 10 2 -7 9 -13 14 -13 6
0 7 5 4 10 -8 13 14 42 26 34 12 -7 7 19 -6 29 -6 5 0 7 13 4 16 -4 22 -1 22
11 0 21 44 74 54 65 3 -3 6 7 6 23 0 18 3 24 8 16 6 -9 15 -5 33 15 13 14 18
23 12 19 -8 -4 -13 -1 -13 9 0 9 4 14 8 11 5 -3 14 4 22 14 8 10 18 16 24 13
6 -4 4 2 -4 12 -8 10 -10 16 -4 12 7 -4 18 7 28 26 8 17 16 26 16 19 0 -7 5
-10 10 -7 6 4 8 11 5 16 -4 5 -1 9 4 9 6 0 11 12 11 26 0 14 4 23 10 19 5 -3
20 1 32 9 12 9 17 16 10 16 -6 0 -12 4 -12 9 0 5 10 7 23 4 12 -3 18 -1 12 4
-12 10 -18 33 -7 32 22 -4 32 3 32 21 0 11 4 19 9 17 5 -1 10 3 11 8 2 6 12
16 22 24 16 11 17 15 7 23 -10 7 -8 8 9 5 20 -5 21 -3 11 9 -10 12 -10 15 2
12 8 -2 13 3 12 10 -2 6 2 12 7 12 6 0 10 7 10 15 0 9 6 12 16 8 14 -5 15 -3
6 14 -9 15 -8 20 3 20 8 0 12 -5 9 -11 -3 -6 2 -2 10 8 9 11 16 26 16 33 0 7
4 13 10 13 5 0 9 5 7 12 -1 7 8 17 20 22 12 6 27 20 34 33 7 12 17 20 22 16 6
-3 8 -2 4 3 -3 5 3 27 13 49 17 34 25 40 21 13 -2 -15 8 -8 20 13 9 17 8 20
-3 13 -10 -6 -10 -4 1 10 11 13 16 14 22 4 8 -13 13 3 12 39 0 7 4 11 11 10 6
-1 10 3 9 10 -2 8 4 10 14 6 12 -5 15 -2 10 10 -5 13 -1 17 16 18 19 0 20 1 4
8 -17 6 -17 8 -3 20 8 7 19 10 23 8 5 -3 15 9 22 26 7 18 28 45 45 60 17 16
25 26 19 22 -7 -3 -13 -3 -13 0 0 9 33 41 37 37 2 -2 9 -1 16 1 9 4 9 6 0 6
-7 1 -13 6 -13 12 0 5 5 7 10 4 9 -5 15 14 11 37 0 4 8 5 19 3 11 -2 19 -1 19
3 -1 4 0 16 1 27 2 17 3 17 10 -5 8 -24 8 -23 9 8 1 19 5 31 11 27 9 -6 14 8
11 28 -1 5 3 6 9 2 5 -3 10 -1 10 5 0 6 10 15 23 20 12 5 16 9 10 9 -7 1 -13
5 -13 11 0 5 7 7 15 4 10 -4 13 0 10 16 -4 19 -2 20 12 8 13 -10 15 -10 9 0
-10 16 12 44 28 35 6 -4 4 2 -4 12 -9 11 -10 16 -2 11 6 -4 12 -3 12 3 0 6 7
8 15 5 8 -4 15 -1 15 5 0 6 -8 11 -17 11 -15 0 -16 2 -3 9 8 6 18 7 22 5 4 -3
8 2 8 11 0 10 5 13 13 9 8 -5 7 -2 -2 9 -12 15 -12 17 4 11 11 -5 16 -3 12 2
-3 6 3 17 14 24 10 8 19 22 19 32 0 12 8 18 23 18 18 0 19 2 7 10 -12 8 -12
10 5 11 l20 0 -20 9 c-19 8 -19 9 3 9 12 1 22 6 22 12 0 5 6 7 13 3 7 -5 6 0
-3 11 -9 11 -10 16 -2 11 17 -10 38 4 21 15 -11 7 -10 9 4 9 10 0 20 7 23 15
4 8 11 12 18 8 6 -4 5 1 -3 10 -12 15 -12 17 2 11 12 -4 14 -1 10 15 -5 20 5
26 30 22 5 -1 6 3 3 8 -8 13 4 42 15 35 5 -3 9 3 9 13 0 14 2 15 9 4 7 -11 10
-9 13 10 2 16 9 24 20 23 10 -1 15 2 13 7 -3 4 3 17 15 29 11 11 15 20 9 20
-5 0 -7 5 -4 10 4 6 11 8 16 5 5 -4 9 -1 9 5 0 6 5 8 13 4 7 -5 7 -2 -2 10
-12 15 -12 17 0 14 8 -2 13 4 13 14 -1 11 5 15 17 13 13 -3 17 2 14 17 -4 16
-2 18 11 7 12 -10 13 -9 8 6 -5 12 -4 16 4 11 7 -4 10 1 7 13 -3 15 1 19 17
16 14 -3 17 -1 10 8 -7 8 -3 20 13 39 13 15 25 25 26 24 2 -2 15 8 29 22 14
14 17 20 7 12 -15 -11 -17 -11 -11 4 3 9 12 16 19 16 8 0 11 8 8 23 -3 12 -1
18 4 12 15 -18 32 -15 28 5 -2 13 2 20 11 20 10 0 14 7 12 20 -2 10 1 19 6 19
5 -1 13 5 17 13 7 11 9 10 9 -1 0 -12 3 -11 13 2 11 16 13 16 31 -4 17 -20 17
-22 1 -15 -15 5 -16 4 -5 -9 7 -8 19 -15 27 -15 10 0 13 -6 9 -16 -3 -8 -2
-12 4 -9 6 3 10 -1 10 -10 0 -9 5 -13 10 -10 6 3 10 2 10 -4 0 -5 -6 -12 -12
-15 -7 -3 -3 -3 10 0 12 3 22 2 21 -3 -3 -18 3 -47 8 -35 8 20 22 14 18 -8 -2
-11 1 -19 8 -17 7 1 11 -6 9 -16 -2 -9 1 -17 5 -16 21 4 33 -2 33 -16 0 -8 5
-15 11 -15 5 0 7 -4 4 -10 -3 -6 -1 -10 5 -10 6 0 8 -4 5 -10 -3 -6 2 -10 11
-10 10 0 15 -3 11 -6 -7 -8 17 -34 31 -34 6 0 8 -10 5 -22 -4 -17 -2 -20 5 -9
8 11 11 9 14 -10 2 -16 9 -24 21 -23 14 2 15 -1 6 -12 -9 -12 -9 -13 4 -8 11
4 16 -1 19 -17 2 -13 13 -28 25 -35 17 -8 20 -13 11 -22 -9 -9 -6 -10 11 -7
12 2 19 0 16 -6 -4 -5 0 -9 7 -9 9 0 9 -3 -2 -10 -13 -9 -7 -14 13 -11 7 1 11
-15 8 -33 -1 -5 6 -3 15 5 10 8 15 9 11 3 -4 -7 0 -17 8 -24 7 -6 11 -19 8
-28 -3 -9 -2 -14 2 -10 5 5 15 -1 22 -12 8 -12 20 -17 26 -13 7 4 5 -2 -3 -13
-8 -10 -11 -16 -6 -12 11 9 47 -29 49 -52 1 -10 4 -17 8 -14 4 2 10 0 14 -6 4
-6 12 -7 18 -3 7 4 6 -1 -2 -10 -8 -10 -11 -20 -7 -24 3 -3 6 -1 6 7 0 10 3
10 15 0 8 -7 15 -21 15 -31 0 -11 3 -18 8 -18 18 3 32 -2 32 -12 0 -5 -5 -7
-10 -4 -6 4 -6 -3 1 -18 6 -13 18 -24 28 -23 9 0 17 -6 17 -14 4 -43 5 -45 14
-25 8 19 9 19 9 -3 1 -13 5 -21 10 -18 5 3 11 -1 14 -8 3 -8 1 -17 -6 -20 -7
-2 2 -5 18 -5 23 -1 27 -4 15 -11 -8 -5 -10 -10 -4 -10 6 0 17 -11 24 -25 7
-13 17 -22 22 -19 5 3 7 0 6 -8 -2 -7 2 -12 8 -11 7 1 10 -6 7 -17 -4 -14 0
-20 12 -20 14 0 15 -3 5 -15 -11 -13 -10 -14 2 -10 9 4 18 -1 22 -10 3 -10 11
-13 18 -9 8 5 7 0 -2 -11 -8 -10 -10 -16 -3 -12 14 9 75 -63 68 -80 -2 -7 1
-13 9 -13 7 0 19 -11 26 -25 7 -13 17 -22 22 -19 4 3 8 -4 8 -16 0 -12 4 -18
10 -15 6 3 10 1 10 -5 0 -6 5 -8 12 -4 7 4 8 3 4 -4 -9 -15 11 -52 29 -52 9 0
12 -8 10 -20 -2 -11 0 -18 4 -15 5 3 12 -2 15 -11 3 -8 10 -12 16 -9 5 3 10
-3 10 -14 0 -11 9 -25 21 -31 11 -7 18 -18 15 -25 -2 -7 2 -16 10 -19 10 -4
12 -2 8 6 -5 7 -3 8 5 4 7 -5 10 -14 7 -22 -3 -8 -1 -14 5 -14 6 0 9 -6 6 -14
-3 -8 1 -13 11 -12 9 0 16 -5 14 -12 -1 -8 2 -11 7 -7 13 7 45 -41 36 -55 -4
-6 -2 -9 3 -8 6 2 10 -1 10 -6 0 -16 26 -25 35 -13 5 7 5 2 2 -12 -6 -19 -4
-23 8 -18 12 4 14 2 10 -10 -4 -11 -2 -14 5 -9 7 4 10 -1 7 -14 -2 -12 1 -20
10 -20 8 0 17 -5 21 -12 5 -7 2 -9 -7 -4 -8 4 -4 -1 9 -12 12 -11 22 -25 22
-32 0 -6 5 -8 12 -4 8 5 9 2 5 -10 -6 -14 -3 -17 9 -12 13 5 15 2 11 -14 -5
-18 -3 -19 11 -8 13 11 14 11 8 -1 -5 -8 -3 -17 5 -22 8 -4 14 -14 14 -21 1
-7 6 -12 13 -11 7 2 12 -4 12 -13 0 -8 4 -13 9 -9 6 3 8 -3 6 -14 -2 -11 3
-22 11 -25 10 -4 13 -1 9 7 -4 6 1 3 9 -7 9 -11 16 -24 16 -29 0 -5 14 -22 31
-39 23 -24 27 -33 17 -40 -9 -6 -5 -8 12 -6 14 2 25 -1 26 -7 2 -19 23 -63 34
-70 5 -3 7 -11 4 -17 -4 -7 -2 -8 4 -4 7 4 12 2 12 -4 0 -6 5 -8 10 -5 6 3 10
-3 10 -14 0 -12 5 -20 11 -18 6 1 16 -7 22 -18 7 -11 17 -23 22 -27 6 -5 4 -8
-5 -8 -13 0 -13 -2 0 -9 8 -6 17 -8 20 -6 3 2 12 -6 20 -18 12 -21 12 -21 -6
-7 -13 10 -12 7 4 -11 25 -29 57 -33 72 -9 8 12 10 12 10 1 0 -8 3 -11 7 -8 3
4 12 -1 20 -11 8 -9 12 -11 8 -5 -3 7 0 13 7 13 9 0 9 3 -2 10 -8 5 -10 10 -5
10 21 0 37 -18 29 -31 -7 -12 -5 -12 9 0 9 7 14 18 10 25 -4 6 4 3 19 -6 19
-12 28 -14 37 -5 7 7 11 7 11 1 0 -6 10 -10 23 -8 12 1 32 3 45 3 16 1 21 5
16 14 -5 8 -3 8 9 -2 9 -7 27 -11 39 -8 12 4 29 1 37 -6 12 -10 14 -9 8 7 -7
17 -6 17 15 4 13 -8 32 -14 43 -12 11 2 35 5 52 6 18 2 33 8 33 13 0 6 3 5 8
-1 12 -19 36 -21 50 -5 8 9 11 10 7 3 -5 -9 1 -11 24 -7 20 3 31 1 31 -6 0 -7
10 -5 26 6 15 9 23 12 19 5 -9 -14 27 -10 37 5 5 6 8 5 8 -2 0 -16 32 -17 48
-1 9 9 12 9 12 0 0 -7 7 -12 16 -12 8 0 13 4 10 8 -2 4 4 8 14 8 10 0 16 -6
13 -13 -4 -10 1 -11 18 -5 13 4 31 8 39 7 8 0 18 4 22 10 5 6 8 6 8 -2 0 -7 7
-13 16 -13 9 0 12 5 8 13 -4 6 1 4 12 -5 19 -16 22 -16 44 -1 13 9 20 12 17 6
-4 -7 21 -11 74 -11 45 -1 84 -3 87 -6 3 -3 12 -1 19 6 9 7 17 8 21 2 4 -5 13
-9 20 -8 6 1 17 2 23 3 5 0 7 7 4 14 -4 6 0 4 8 -6 11 -14 16 -15 20 -5 4 10
7 10 14 1 6 -8 14 -9 23 -3 13 8 13 10 1 10 -8 0 -12 3 -9 6 3 3 15 0 26 -7
17 -10 23 -10 36 0 9 8 16 9 16 3 0 -5 9 -12 20 -15 11 -3 20 -2 20 3 0 4 7
10 14 13 11 4 13 1 9 -10 -5 -12 -3 -14 7 -8 8 5 26 9 40 9 14 1 31 5 38 9 7
5 12 3 12 -4 0 -8 10 -9 30 -5 23 4 29 2 25 -7 -4 -6 1 -3 9 7 11 13 16 15 16
6 0 -7 3 -10 7 -7 3 4 12 -1 20 -11 8 -9 12 -11 8 -4 -6 12 15 16 64 12 13 -1
28 4 32 12 7 10 9 10 9 0 0 -7 5 -10 10 -7 6 3 10 2 10 -4 0 -7 8 -7 25 -1 14
5 30 8 37 6 7 -1 10 -1 5 1 -4 3 -5 9 -2 13 3 5 -3 18 -15 30 -12 12 -15 20
-7 21 6 0 2 5 -10 11 -21 10 -28 27 -24 51 1 5 -3 6 -8 3 -15 -10 -40 5 -34
20 3 8 0 14 -7 14 -7 0 -10 7 -6 16 4 11 2 15 -8 11 -10 -4 -14 0 -11 13 2 11
-1 23 -7 26 -7 5 -8 2 -3 -6 5 -9 4 -11 -3 -6 -7 4 -12 17 -12 29 0 14 -3 18
-8 10 -5 -8 -13 -9 -22 -3 -10 7 -11 10 -2 10 6 0 12 5 12 11 0 5 -4 7 -10 4
-6 -3 -10 -1 -10 5 0 6 -4 8 -10 5 -5 -3 -10 1 -10 10 0 10 5 14 13 9 6 -3 0
5 -15 20 -16 15 -28 32 -28 37 0 6 -6 9 -14 6 -19 -8 -28 3 -15 19 7 8 6 14
-2 20 -8 5 -9 3 -4 -6 5 -9 4 -11 -3 -6 -7 4 -12 17 -12 29 0 18 -2 19 -10 7
-7 -12 -10 -8 -11 15 0 26 -2 27 -9 10 -8 -18 -10 -18 -14 3 -1 4 -5 13 -9 19
-5 7 -5 17 -2 23 3 5 -1 10 -9 10 -9 0 -15 3 -15 8 3 19 -2 25 -11 12 -8 -13
-10 -12 -10 3 0 9 -4 17 -10 17 -5 0 -10 9 -10 21 0 11 -4 17 -10 14 -5 -3
-10 -1 -10 5 0 6 -11 23 -24 37 -14 15 -23 30 -20 35 3 4 0 8 -6 8 -6 0 -8 5
-4 12 5 7 3 8 -5 4 -8 -5 -14 0 -18 13 -3 11 -9 18 -14 15 -5 -3 -9 4 -9 16 0
12 -4 18 -10 15 -6 -4 -10 6 -10 22 0 19 -3 24 -9 14 -11 -17 -25 4 -15 22 6
9 4 9 -8 -1 -14 -11 -16 -10 -11 9 4 15 2 20 -5 15 -6 -4 -16 8 -23 29 -7 19
-16 30 -19 25 -4 -6 -15 7 -27 27 -11 21 -25 37 -31 36 -7 -2 -12 4 -12 13 0
8 5 12 10 9 16 -10 11 1 -7 16 -15 12 -16 12 -8 -1 4 -8 -4 -4 -18 9 -15 13
-24 28 -21 33 3 4 -2 15 -10 24 -9 8 -16 12 -16 7 0 -4 -8 7 -16 24 -9 18 -20
30 -25 27 -5 -3 -9 4 -9 15 0 11 -5 23 -10 26 -8 5 -7 12 2 23 8 11 5 10 -10
-3 -13 -11 -22 -15 -21 -10 4 16 -12 45 -22 39 -5 -3 -6 3 -2 12 5 13 3 15 -8
9 -12 -8 -12 -6 -1 8 12 14 11 16 -7 12 -12 -2 -19 0 -16 4 2 5 -2 14 -10 21
-8 7 -15 18 -15 26 0 7 -6 17 -14 21 -19 11 -74 79 -56 69 8 -4 4 1 -9 12 -13
11 -21 24 -17 31 4 6 1 11 -6 11 -7 0 -22 8 -33 17 l-20 16 20 -7 c15 -4 13 0
-9 18 -20 17 -24 25 -15 29 8 3 5 6 -8 6 -16 1 -21 6 -18 20 2 13 -1 18 -9 15
-7 -3 -21 5 -32 17 -10 13 -13 19 -6 15 6 -4 12 -2 12 4 0 6 -7 13 -16 17 -8
3 -13 12 -10 19 3 8 2 13 -2 13 -17 -3 -32 2 -31 9 4 26 -2 41 -16 36 -11 -4
-13 -2 -9 9 3 10 -6 24 -26 38 -18 14 -28 29 -25 37 4 10 0 12 -10 8 -9 -3
-13 -2 -10 3 3 5 1 12 -5 16 -6 4 -7 11 -4 17 4 7 2 8 -4 4 -7 -4 -12 -1 -12
9 0 9 -4 13 -10 10 -6 -3 -10 3 -10 13 0 22 -23 45 -34 34 -4 -4 -7 -2 -6 3 1
6 2 17 1 25 -1 13 -2 13 -11 0 -8 -13 -10 -12 -11 5 -1 11 -1 22 -1 25 0 3 -6
11 -14 18 -8 7 -14 10 -14 7 0 -4 -11 7 -25 23 -14 17 -25 33 -25 37 0 4 -8
13 -17 20 -9 7 -18 20 -19 29 -5 35 -14 48 -29 42 -11 -4 -15 0 -13 12 2 10
-2 16 -11 14 -12 -3 -12 -1 -1 13 7 9 9 15 4 14 -23 -4 -35 2 -32 18 2 10 -7
22 -22 30 -14 7 -21 13 -16 13 6 0 1 7 -10 16 -10 8 -13 13 -6 9 6 -3 12 -1
12 4 0 6 -7 11 -15 11 -17 0 -36 39 -27 54 3 5 0 6 -7 2 -15 -10 -41 12 -35
29 3 7 -10 25 -28 40 -18 15 -27 24 -21 20 9 -4 11 -1 7 9 -3 9 -9 15 -12 14
-21 -2 -31 4 -26 16 3 8 -4 21 -16 29 -14 10 -19 20 -14 28 5 9 2 10 -10 6
-13 -5 -17 -3 -13 7 3 8 -1 20 -8 26 -8 7 -12 17 -8 24 4 6 -1 5 -10 -2 -14
-12 -16 -11 -12 7 2 14 -1 21 -11 21 -8 0 -14 6 -14 14 0 7 -8 20 -17 27 -16
12 -17 12 -8 -1 6 -9 2 -7 -8 4 -14 15 -15 21 -5 27 9 6 6 9 -10 9 -13 0 -20
4 -17 10 3 6 1 10 -6 10 -7 0 -9 3 -6 6 11 12 -14 46 -29 40 -8 -3 -13 -2 -9
3 3 5 1 20 -4 33 -6 12 -10 17 -10 10 -1 -10 -4 -10 -15 0 -7 7 -11 19 -8 27
4 10 1 13 -12 8 -10 -4 -15 -3 -11 3 3 6 2 10 -4 10 -10 0 -27 38 -23 53 1 4
-1 6 -5 6 -20 -3 -26 2 -13 11 13 8 12 10 -2 10 -10 0 -18 7 -18 15 0 8 -9 19
-20 25 -11 6 -17 16 -14 22 5 8 1 9 -11 4 -15 -5 -16 -4 -5 9 11 13 10 15 -1
11 -15 -6 -71 63 -83 102 -4 12 -12 20 -17 17 -9 -6 -13 8 -9 35 1 8 -1 12 -5
8 -9 -9 -67 51 -60 62 7 11 -24 22 -38 13 -7 -4 -6 1 2 10 11 14 11 18 -2 23
-16 6 -33 41 -28 58 1 5 -4 4 -13 -3 -11 -9 -16 -9 -21 0 -4 6 -2 15 5 19 8 5
5 9 -9 13 -12 3 -24 13 -28 24 -6 17 -14 28 -57 72 -11 12 -15 25 -10 33 5 9
2 8 -11 -2 -10 -8 -16 -10 -12 -4 16 27 -52 112 -76 97 -6 -3 -7 -1 -3 5 4 7
4 18 -1 25 -4 6 -8 17 -8 22 -1 6 -6 9 -13 7 -10 -2 -17 16 -14 39 1 4 -9 5
-21 2 -18 -4 -19 -3 -7 6 8 6 10 11 4 11 -6 0 -16 12 -22 26 -7 14 -16 23 -20
20 -5 -3 -16 8 -26 25 -9 16 -22 29 -27 29 -6 0 -7 5 -3 11 4 7 -4 20 -17 31
-13 11 -18 16 -10 12 10 -5 12 -3 7 5 -5 7 -14 10 -22 7 -14 -6 -15 15 -1 25
5 3 2 9 -7 12 -9 4 -16 1 -16 -5 0 -12 -15 -2 -15 10 0 4 -4 13 -9 21 -7 10
-6 12 4 6 9 -6 11 -4 6 4 -5 7 -14 10 -22 7 -8 -3 -13 -2 -12 2 4 16 -14 52
-28 52 -8 0 -13 6 -11 13 1 6 -4 11 -12 9 -12 -3 -12 -1 -1 13 7 9 9 15 4 14
-20 -3 -35 1 -30 10 4 5 0 12 -6 14 -10 4 -10 8 1 15 9 7 10 12 2 16 -6 4 -11
3 -11 -2 0 -5 -7 -9 -15 -9 -12 0 -12 3 -2 16 9 12 9 13 0 7 -8 -4 -13 -2 -13
4 0 6 -5 8 -12 4 -9 -5 -9 -2 1 9 11 14 11 17 0 18 -8 1 -18 0 -24 -1 -5 -1
-7 2 -3 6 4 4 0 13 -10 21 -9 8 -12 12 -5 9 6 -4 15 -1 19 5 4 7 3 9 -4 5 -15
-9 -60 36 -54 53 3 10 0 12 -11 8 -11 -4 -14 0 -12 19 2 18 -1 22 -10 14 -9
-8 -14 -4 -19 15 -4 14 -11 23 -15 20 -5 -3 -7 5 -4 17 4 19 3 20 -6 8 -9 -13
-11 -12 -11 3 0 11 -4 15 -12 11 -8 -5 -9 0 -5 15 4 17 2 21 -9 17 -8 -3 -14
-1 -14 5 0 15 -26 39 -42 39 -10 0 -9 3 2 10 13 9 13 12 -2 24 -10 7 -18 18
-18 25 0 10 -13 15 -32 12 -7 -1 -12 22 -9 41 0 4 -8 10 -19 13 -11 4 -20 11
-20 17 0 6 -8 17 -17 25 -10 8 -12 12 -6 8 9 -4 11 -1 7 9 -3 9 -10 13 -15 10
-5 -3 -9 0 -9 7 0 7 -9 22 -19 33 -11 12 -27 35 -35 51 -13 24 -16 26 -17 10
0 -18 -1 -18 -9 3 -5 12 -17 22 -27 23 -12 1 -10 3 7 9 23 7 23 8 3 9 -13 1
-26 12 -34 30 -7 16 -17 27 -21 25 -4 -3 -8 7 -8 23 0 19 -3 24 -9 14 -6 -9
-11 -10 -15 -2 -4 6 -4 16 0 23 4 6 3 8 -3 5 -12 -8 -27 18 -32 56 -2 6 -6 3
-11 -8 -8 -19 -9 -19 -9 3 -1 13 -5 20 -11 17 -5 -3 -7 0 -4 8 3 8 0 18 -7 23
-8 5 -10 3 -5 -7 4 -8 0 -5 -9 6 -15 20 -16 20 -21 -3z m-414 -586 c0 -3 -4
-8 -10 -11 -5 -3 -10 -1 -10 4 0 6 5 11 10 11 6 0 10 -2 10 -4z m-1390 -1900
c0 -2 -8 -10 -17 -17 -16 -13 -17 -12 -4 4 13 16 21 21 21 13z m3841 -133 c13
-16 12 -17 -3 -4 -10 7 -18 15 -18 17 0 8 8 3 21 -13z m-2471 -613 c0 -5 -5
-10 -11 -10 -5 0 -7 5 -4 10 3 6 8 10 11 10 2 0 4 -4 4 -10z m-740 -940 c0 -5
-5 -10 -11 -10 -5 0 -7 5 -4 10 3 6 8 10 11 10 2 0 4 -4 4 -10z m4817 -806
c-3 -3 -12 -4 -19 -1 -8 3 -5 6 6 6 11 1 17 -2 13 -5z"/>
<path d="M901 5544 c0 -11 3 -14 6 -6 3 7 2 16 -1 19 -3 4 -6 -2 -5 -13z"/>
<path d="M887 4819 c7 -7 15 -10 18 -7 3 3 -2 9 -12 12 -14 6 -15 5 -6 -5z"/>
<path d="M6251 4787 c-13 -21 -12 -21 5 -5 10 10 16 20 13 22 -3 3 -11 -5 -18
-17z"/>
<path d="M895 4700 c-3 -5 -1 -10 4 -10 6 0 11 5 11 10 0 6 -2 10 -4 10 -3 0
-8 -4 -11 -10z"/>
<path d="M3288 4553 c7 -3 16 -2 19 1 4 3 -2 6 -13 5 -11 0 -14 -3 -6 -6z"/>
<path d="M7631 4294 c0 -11 3 -14 6 -6 3 7 2 16 -1 19 -3 4 -6 -2 -5 -13z"/>
<path d="M2981 4124 c0 -11 3 -14 6 -6 3 7 2 16 -1 19 -3 4 -6 -2 -5 -13z"/>
<path d="M5710 3884 c0 -5 7 -18 15 -28 8 -11 15 -16 15 -10 0 5 -7 18 -15 28
-8 11 -15 16 -15 10z"/>
<path d="M887 3699 c7 -7 15 -10 18 -7 3 3 -2 9 -12 12 -14 6 -15 5 -6 -5z"/>
<path d="M7190 3659 c0 -5 5 -7 10 -4 6 3 10 8 10 11 0 2 -4 4 -10 4 -5 0 -10
-5 -10 -11z"/>
<path d="M1790 3519 c0 -5 5 -7 10 -4 6 3 10 8 10 11 0 2 -4 4 -10 4 -5 0 -10
-5 -10 -11z"/>
<path d="M1371 2954 c0 -11 3 -14 6 -6 3 7 2 16 -1 19 -3 4 -6 -2 -5 -13z"/>
<path d="M4075 2940 c-3 -6 1 -7 9 -4 18 7 21 14 7 14 -6 0 -13 -4 -16 -10z"/>
<path d="M895 2900 c-3 -5 -1 -10 4 -10 6 0 11 5 11 10 0 6 -2 10 -4 10 -3 0
-8 -4 -11 -10z"/>
<path d="M6510 2816 c0 -2 8 -10 18 -17 15 -13 16 -12 3 4 -13 16 -21 21 -21
13z"/>
<path d="M6845 2381 c-3 -5 -2 -12 3 -15 5 -3 9 1 9 9 0 17 -3 19 -12 6z"/>
<path d="M3800 1520 l0 -220 210 0 209 0 3 220 3 220 -212 0 -213 0 0 -220z"/>
<path d="M4300 1520 l0 -220 210 0 210 0 0 220 0 220 -210 0 -210 0 0 -220z"/>
<path d="M3070 1659 c0 -5 5 -7 10 -4 6 3 10 8 10 11 0 2 -4 4 -10 4 -5 0 -10
-5 -10 -11z"/>
<path d="M2992 1550 c0 -14 2 -19 5 -12 2 6 2 18 0 25 -3 6 -5 1 -5 -13z"/>
<path d="M5540 1541 c0 -6 4 -13 10 -16 6 -3 7 1 4 9 -7 18 -14 21 -14 7z"/>
<path d="M3800 1000 l0 -220 210 0 210 0 0 220 0 220 -210 0 -210 0 0 -220z"/>
<path d="M4300 1000 l0 -220 210 0 210 0 0 220 0 220 -210 0 -210 0 0 -220z"/>
<path d="M2710 1199 c0 -5 5 -7 10 -4 6 3 10 8 10 11 0 2 -4 4 -10 4 -5 0 -10
-5 -10 -11z"/>
<path d="M495 830 c-4 -6 -3 -16 3 -22 13 -13 23 4 13 21 -7 10 -10 10 -16 1z"/>
</g>
</svg>
